v  -0.5770 0.0554 0.5389
v  -0.5770 0.0554 -0.5389
v  -0.5387 0.0554 -0.5772
v  0.5770 0.0554 -0.5389
v  0.5387 0.0554 -0.5772
v  0.5770 0.0554 0.5389
v  0.5387 0.0554 0.5772
v  -0.5387 0.0554 0.5772
v  0.5470 0.0754 0.5972
v  0.5470 0.9616 0.5972
v  -0.5470 0.9616 0.5972
v  -0.5470 0.0754 0.5972
v  0.5970 0.0754 -0.5472
v  0.5970 0.9616 -0.5472
v  0.5970 0.9616 0.5472
v  0.5970 0.0754 0.5472
v  -0.5470 0.0754 -0.5972
v  -0.5470 0.9616 -0.5972
v  0.5470 0.9616 -0.5972
v  0.5470 0.0754 -0.5972
v  -0.5970 0.0754 0.5472
v  -0.5970 0.9616 0.5472
v  -0.5970 0.9616 -0.5472
v  -0.5970 0.0754 -0.5472
v  0.5266 1.0055 0.5750
v  -0.5266 1.0055 0.5750
v  0.5748 1.0055 -0.5268
v  0.5748 1.0055 0.5268
v  -0.5266 1.0055 -0.5750
v  0.5266 1.0055 -0.5750
v  -0.5747 1.0055 0.5268
v  -0.5747 1.0055 -0.5268
v  0.4879 1.0055 0.5327
v  -0.4879 1.0055 0.5327
v  0.5325 1.0055 -0.4881
v  0.5325 1.0055 0.4881
v  -0.4879 1.0055 -0.5327
v  0.4879 1.0055 -0.5327
v  -0.5325 1.0055 0.4881
v  -0.5325 1.0055 -0.4881
v  0.4616 0.9715 0.5040
v  -0.4616 0.9715 0.5040
v  0.5038 0.9715 -0.4618
v  0.5038 0.9715 0.4618
v  -0.4616 0.9715 -0.5040
v  0.4616 0.9715 -0.5040
v  -0.5038 0.9715 0.4618
v  -0.5038 0.9715 -0.4618
v  0.4616 0.2257 0.5040
v  -0.4616 0.2257 0.5040
v  0.5038 0.2257 -0.4618
v  0.5038 0.2257 0.4618
v  -0.4616 0.2257 -0.5040
v  0.4616 0.2257 -0.5040
v  -0.5038 0.2257 0.4618
v  -0.5038 0.2257 -0.4618
v  0.4838 0.2057 0.4535
v  0.4838 0.2057 -0.4535
v  0.4534 0.2057 -0.4840
v  -0.4534 0.2057 0.4840
v  -0.4534 0.2057 -0.4840
v  -0.4838 0.2057 -0.4535
v  -0.4838 0.2057 0.4535
v  0.4534 0.2057 0.4840
v  -0.5367 1.1696 0.5760
v  0.5407 1.1696 0.5760
v  0.5790 1.1696 0.5377
v  0.5407 1.1696 -0.5784
v  0.5790 1.1696 -0.5401
v  -0.5367 1.1696 -0.5784
v  -0.5750 1.1696 -0.5401
v  -0.5750 1.1696 0.5377
v  -0.5950 1.1496 0.5460
v  -0.5950 1.0146 0.5460
v  -0.5450 1.0146 0.5960
v  -0.5450 1.1496 0.5960
v  0.5490 1.1496 0.5960
v  0.5990 1.1496 0.5460
v  0.5990 1.1496 -0.5484
v  0.5490 1.1496 -0.5984
v  -0.5450 1.1496 -0.5984
v  -0.5950 1.1496 -0.5484
v  0.5490 1.0146 0.5960
v  0.5990 1.0146 0.5460
v  0.5990 1.0146 -0.5484
v  0.5490 1.0146 -0.5984
v  -0.5450 1.0146 -0.5984
v  -0.5950 1.0146 -0.5484
v  -0.5739 1.0022 0.5267
v  -0.5257 1.0022 0.5749
v  0.5297 1.0022 0.5749
v  0.5779 1.0022 0.5267
v  0.5779 1.0022 -0.5291
v  0.5297 1.0022 -0.5773
v  -0.5257 1.0022 -0.5773
v  -0.5739 1.0022 -0.5291
v  -0.5224 1.0022 0.4795
v  -0.4785 1.0022 0.5234
v  0.4825 1.0022 0.5234
v  0.5264 1.0022 0.4795
v  0.5264 1.0022 -0.4819
v  0.4825 1.0022 -0.5258
v  -0.4785 1.0022 -0.5258
v  -0.5224 1.0022 -0.4819
v  -0.5224 1.0306 0.4795
v  -0.4785 1.0306 0.5234
v  0.4825 1.0306 0.5234
v  0.5264 1.0306 0.4795
v  0.5264 1.0306 -0.4819
v  0.4825 1.0306 -0.5258
v  -0.4785 1.0306 -0.5258
v  -0.5224 1.0306 -0.4819
# 112 vertices

vn -0.4044 -0.8991 0.1675
vn -0.4044 -0.8991 -0.1675
vn -0.1675 -0.8991 -0.4044
vn 0.4044 -0.8991 -0.1675
vn 0.1675 -0.8991 -0.4044
vn 0.4044 -0.8991 0.1675
vn 0.1675 -0.8991 0.4044
vn -0.1675 -0.8991 0.4044
vn 0.3827 0.0000 0.9239
vn -0.3827 -0.0000 0.9239
vn 0.9239 0.0000 -0.3827
vn 0.9239 0.0000 0.3827
vn -0.3827 -0.0000 -0.9239
vn 0.3827 0.0000 -0.9239
vn -0.9239 -0.0000 0.3827
vn -0.9239 -0.0000 -0.3827
vn -0.6269 -0.7345 0.2597
vn -0.6269 -0.7345 -0.2597
vn -0.2597 -0.7345 -0.6269
vn 0.2597 -0.7345 -0.6269
vn 0.6269 -0.7345 -0.2597
vn 0.6269 -0.7345 0.2597
vn 0.2597 -0.7345 0.6269
vn -0.2597 -0.7345 0.6269
vn -0.3505 0.5484 0.7592
vn 0.3505 0.5484 0.7592
vn 0.1849 0.8255 0.5333
vn -0.1849 0.8255 0.5333
vn 0.7592 0.5484 0.3506
vn 0.7592 0.5484 -0.3506
vn 0.5333 0.8254 -0.1849
vn 0.5333 0.8254 0.1849
vn 0.3505 0.5484 -0.7592
vn -0.3505 0.5484 -0.7592
vn -0.1849 0.8255 -0.5333
vn 0.1849 0.8255 -0.5333
vn -0.7592 0.5484 -0.3506
vn -0.7592 0.5484 0.3506
vn -0.5333 0.8254 0.1849
vn -0.5333 0.8254 -0.1849
vn -0.1195 0.9604 -0.2518
vn 0.1195 0.9604 -0.2518
vn -0.2518 0.9604 0.1195
vn -0.2518 0.9604 -0.1195
vn 0.1195 0.9604 0.2518
vn -0.1195 0.9604 0.2518
vn 0.2518 0.9604 -0.1195
vn 0.2518 0.9604 0.1195
vn -0.2096 0.7203 -0.6612
vn 0.2096 0.7203 -0.6612
vn -0.6613 0.7202 0.2096
vn -0.6613 0.7202 -0.2096
vn 0.2096 0.7203 0.6612
vn -0.2096 0.7203 0.6612
vn 0.6613 0.7202 -0.2096
vn 0.6613 0.7202 0.2096
vn -0.3827 0.0000 -0.9239
vn -0.9239 0.0000 -0.3827
vn -0.9239 0.0000 0.3827
vn -0.3827 0.0000 0.9239
vn -0.4044 0.8991 -0.1675
vn -0.4044 0.8991 0.1675
vn -0.1675 0.8991 0.4044
vn 0.1675 0.8991 -0.4044
vn 0.1675 0.8991 0.4044
vn 0.4044 0.8991 0.1675
vn 0.4044 0.8991 -0.1675
vn -0.1675 0.8991 -0.4044
vn -0.2597 0.7345 -0.6269
vn 0.2597 0.7345 -0.6269
vn -0.6269 0.7345 0.2597
vn -0.6269 0.7345 -0.2597
vn 0.2597 0.7345 0.6269
vn -0.2597 0.7345 0.6269
vn 0.6269 0.7345 -0.2597
vn 0.6269 0.7345 0.2597
vn 0.0000 1.0000 -0.0000
vn -0.0000 1.0000 -0.0000
vn -0.8587 0.3689 0.3557
vn -0.8007 -0.4891 0.3458
vn -0.3458 -0.4891 0.8007
vn -0.3557 0.3689 0.8587
vn 0.3557 0.3689 0.8587
vn 0.8587 0.3689 0.3557
vn 0.8587 0.3689 -0.3557
vn 0.3557 0.3689 -0.8587
vn -0.3557 0.3689 -0.8587
vn -0.8587 0.3689 -0.3557
vn 0.3458 -0.4891 0.8007
vn 0.8007 -0.4891 0.3458
vn 0.8007 -0.4891 -0.3458
vn 0.3458 -0.4891 -0.8007
vn -0.3458 -0.4891 -0.8007
vn -0.8007 -0.4891 -0.3458
vn -0.4201 -0.8995 0.1199
vn -0.1199 -0.8996 0.4200
vn 0.1199 -0.8996 0.4200
vn 0.4201 -0.8995 0.1199
vn 0.4201 -0.8995 -0.1199
vn 0.1199 -0.8996 -0.4200
vn -0.1199 -0.8996 -0.4200
vn -0.4201 -0.8995 -0.1199
vn 0.0000 -1.0000 -0.0000
vn -0.0000 -1.0000 0.0000
vn 0.0000 -1.0000 0.0000
# 105 vertex normals

vt 0.4520 0.5336 0.0000
vt 0.2553 0.5339 0.0000
vt 0.2484 0.5271 0.0000
vt 0.2549 0.3236 0.0000
vt 0.2480 0.3305 0.0000
vt 0.4516 0.3232 0.0000
vt 0.4585 0.3301 0.0000
vt 0.4588 0.5267 0.0000
vt 0.4162 0.0061 0.0000
vt 0.4162 0.1673 0.0000
vt 0.2173 0.1673 0.0000
vt 0.2173 0.0061 0.0000
vt 0.6280 0.0061 0.0000
vt 0.6280 0.1673 0.0000
vt 0.4291 0.1673 0.0000
vt 0.4291 0.0061 0.0000
vt 0.8398 0.0061 0.0000
vt 0.8398 0.1673 0.0000
vt 0.6409 0.1673 0.0000
vt 0.6409 0.0061 0.0000
vt 0.2044 0.0061 0.0000
vt 0.2044 0.1673 0.0000
vt 0.0055 0.1673 0.0000
vt 0.0055 0.0061 0.0000
vt 0.8527 0.0061 0.0000
vt 0.8527 0.1673 0.0000
vt 0.4540 0.5384 0.0000
vt 0.2533 0.5388 0.0000
vt 0.2436 0.5291 0.0000
vt 0.2432 0.3285 0.0000
vt 0.2529 0.3188 0.0000
vt 0.4536 0.3184 0.0000
vt 0.4633 0.3281 0.0000
vt 0.4637 0.5287 0.0000
vt 0.2378 0.3314 0.0000
vt 0.2364 0.5450 0.0000
vt 0.2284 0.5395 0.0000
vt 0.2297 0.3367 0.0000
vt 0.2248 0.5565 0.0000
vt 0.0111 0.5551 0.0000
vt 0.0165 0.5471 0.0000
vt 0.2194 0.5484 0.0000
vt -0.0004 0.5435 0.0000
vt 0.0009 0.3299 0.0000
vt 0.0090 0.3353 0.0000
vt 0.0077 0.5381 0.0000
vt 0.0126 0.3184 0.0000
vt 0.2263 0.3197 0.0000
vt 0.2208 0.3278 0.0000
vt 0.0179 0.3265 0.0000
vt 0.2209 0.5322 0.0000
vt 0.2221 0.3439 0.0000
vt 0.0238 0.5396 0.0000
vt 0.2122 0.5408 0.0000
vt 0.0164 0.3426 0.0000
vt 0.0152 0.5309 0.0000
vt 0.2135 0.3352 0.0000
vt 0.0252 0.3340 0.0000
vt 0.2134 0.5263 0.0000
vt 0.2145 0.3497 0.0000
vt 0.0297 0.5321 0.0000
vt 0.2064 0.5332 0.0000
vt 0.0240 0.3485 0.0000
vt 0.0229 0.5251 0.0000
vt 0.2076 0.3428 0.0000
vt 0.0309 0.3417 0.0000
vt 0.7205 0.3083 0.0000
vt 0.5526 0.3083 0.0000
vt 0.5526 0.1727 0.0000
vt 0.7205 0.1727 0.0000
vt 0.5417 0.3083 0.0000
vt 0.3738 0.3083 0.0000
vt 0.3738 0.1727 0.0000
vt 0.5417 0.1727 0.0000
vt 0.3630 0.3083 0.0000
vt 0.1951 0.3083 0.0000
vt 0.1951 0.1727 0.0000
vt 0.3630 0.1727 0.0000
vt 0.1842 0.3083 0.0000
vt 0.0163 0.3083 0.0000
vt 0.0163 0.1727 0.0000
vt 0.1842 0.1727 0.0000
vt 0.0055 0.3083 0.0000
vt 0.0055 0.1727 0.0000
vt 0.0438 0.3553 0.0000
vt 0.1948 0.3545 0.0000
vt 0.1998 0.3595 0.0000
vt 0.0396 0.5113 0.0000
vt 0.2006 0.5104 0.0000
vt 0.1957 0.5154 0.0000
vt 0.0446 0.5162 0.0000
vt 0.0389 0.3603 0.0000
vt 0.0344 0.3585 0.0000
vt 0.0352 0.5131 0.0000
vt 0.1966 0.3501 0.0000
vt 0.0419 0.3509 0.0000
vt 0.2050 0.5122 0.0000
vt 0.2042 0.3576 0.0000
vt 0.0428 0.5206 0.0000
vt 0.1975 0.5198 0.0000
vt 0.2156 0.5743 0.0000
vt 0.2149 0.7710 0.0000
vt 0.2080 0.7778 0.0000
vt 0.0044 0.7702 0.0000
vt 0.0113 0.7771 0.0000
vt 0.0051 0.5736 0.0000
vt 0.0120 0.5667 0.0000
vt 0.2087 0.5675 0.0000
vt 0.4178 0.9870 0.0000
vt 0.4189 0.9642 0.0000
vt 0.4280 0.9653 0.0000
vt 0.4274 0.9876 0.0000
vt 0.2204 0.5724 0.0000
vt 0.2197 0.7730 0.0000
vt 0.2099 0.7826 0.0000
vt 0.0092 0.7819 0.0000
vt -0.0004 0.7722 0.0000
vt 0.0003 0.5716 0.0000
vt 0.0100 0.5619 0.0000
vt 0.2107 0.5626 0.0000
vt 0.6074 0.9877 0.0000
vt 0.6075 0.9652 0.0000
vt 0.7967 0.9873 0.0000
vt 0.6165 0.9877 0.0000
vt 0.6163 0.9652 0.0000
vt 0.7959 0.9650 0.0000
vt 0.9876 0.9863 0.0000
vt 0.8064 0.9864 0.0000
vt 0.8052 0.9639 0.0000
vt 0.9865 0.9635 0.0000
vt 0.2359 0.9847 0.0000
vt 0.2387 0.9631 0.0000
vt 0.2238 0.9819 0.0000
vt 0.2290 0.9587 0.0000
vt 0.4189 0.9596 0.0000
vt 0.4301 0.9607 0.0000
vt 0.6061 0.9606 0.0000
vt 0.6176 0.9605 0.0000
vt 0.7937 0.9606 0.0000
vt 0.8047 0.9594 0.0000
vt 0.9805 0.9590 0.0000
vt 0.2428 0.9596 0.0000
vt 0.2335 0.9529 0.0000
vt 0.4163 0.9498 0.0000
vt 0.4343 0.9505 0.0000
vt 0.6025 0.9505 0.0000
vt 0.6211 0.9504 0.0000
vt 0.7893 0.9504 0.0000
vt 0.8070 0.9495 0.0000
vt 0.9709 0.9502 0.0000
vt 0.2511 0.9507 0.0000
vt 0.2423 0.9440 0.0000
vt 0.2004 0.9790 0.0000
vt 0.1903 0.9891 0.0000
vt 0.1886 0.9850 0.0000
vt 0.1963 0.9773 0.0000
vt 0.2007 0.7985 0.0000
vt 0.1966 0.8002 0.0000
vt 0.0100 0.7881 0.0000
vt 0.1906 0.7884 0.0000
vt 0.1889 0.7925 0.0000
vt 0.0117 0.7922 0.0000
vt -0.0004 0.9787 0.0000
vt -0.0001 0.7981 0.0000
vt 0.0040 0.7998 0.0000
vt 0.0037 0.9770 0.0000
vt 0.0097 0.9888 0.0000
vt 0.0114 0.9847 0.0000
# 168 texture coords

g big_box
s 16
f 1/1/1 2/2/2 3/3/3 4/4/4 
f 3/3/3 5/5/5 4/4/4 
f 4/4/4 6/6/6 7/7/7 1/1/1 
f 8/8/8 1/1/1 7/7/7 
s 8
f 9/9/9 10/10/9 11/11/10 12/12/10 
f 13/13/11 14/14/11 15/15/12 16/16/12 
f 17/17/13 18/18/13 19/19/14 20/20/14 
f 21/21/15 22/22/15 23/23/16 24/24/16 
f 16/16/12 15/15/12 10/10/9 9/9/9 
f 20/20/14 19/19/14 14/14/11 13/13/11 
f 24/25/16 23/26/16 18/18/13 17/17/13 
s 16
f 1/1/1 21/27/17 24/28/18 2/2/2 
f 3/3/3 17/29/19 20/30/20 5/5/5 
f 4/4/4 13/31/21 16/32/22 6/6/6 
f 7/7/7 9/33/23 12/34/24 8/8/8 
f 21/27/17 1/1/1 8/8/8 12/34/24 
f 9/33/23 7/7/7 6/6/6 16/32/22 
f 17/29/19 3/3/3 2/2/2 24/28/18 
f 13/31/21 4/4/4 5/5/5 20/30/20 
s 8
f 21/21/15 12/12/10 11/11/10 22/22/15 
s 4
f 11/35/25 10/36/26 25/37/27 26/38/28 
f 15/39/29 14/40/30 27/41/31 28/42/32 
f 19/43/33 18/44/34 29/45/35 30/46/36 
f 23/47/37 22/48/38 31/49/39 32/50/40 
f 10/36/26 15/39/29 28/42/32 25/37/27 
f 22/48/38 11/35/25 26/38/28 31/49/39 
f 14/40/30 19/43/33 30/46/36 27/41/31 
f 18/44/34 23/47/37 32/50/40 29/45/35 
f 26/38/28 25/37/27 33/51/41 34/52/42 
f 28/42/32 27/41/31 35/53/43 36/54/44 
f 30/46/36 29/45/35 37/55/45 38/56/46 
f 32/50/40 31/49/39 39/57/47 40/58/48 
f 25/37/27 28/42/32 36/54/44 33/51/41 
f 31/49/39 26/38/28 34/52/42 39/57/47 
f 27/41/31 30/46/36 38/56/46 35/53/43 
f 29/45/35 32/50/40 40/58/48 37/55/45 
f 34/52/42 33/51/41 41/59/49 42/60/50 
f 36/54/44 35/53/43 43/61/51 44/62/52 
f 38/56/46 37/55/45 45/63/53 46/64/54 
f 40/58/48 39/57/47 47/65/55 48/66/56 
f 33/51/41 36/54/44 44/62/52 41/59/49 
f 39/57/47 34/52/42 42/60/50 47/65/55 
f 35/53/43 38/56/46 46/64/54 43/61/51 
f 37/55/45 40/58/48 48/66/56 45/63/53 
s 2
f 42/67/14 41/68/57 49/69/57 50/70/14 
f 44/71/58 43/72/59 51/73/59 52/74/58 
f 46/75/60 45/76/9 53/77/9 54/78/60 
f 48/79/12 47/80/11 55/81/11 56/82/12 
f 41/68/57 44/71/58 52/74/58 49/69/57 
f 47/80/11 42/83/14 50/84/14 55/81/11 
f 43/72/59 46/75/60 54/78/60 51/73/59 
f 45/76/9 48/79/12 56/82/12 53/77/9 
s 1
f 57/85/61 58/86/62 59/87/63 60/88/64 
f 59/87/63 61/89/65 62/90/66 60/88/64 
f 62/90/66 63/91/67 60/88/64 
f 64/92/68 57/85/61 60/88/64 
f 49/93/69 64/92/68 60/88/64 50/94/70 
f 51/95/71 58/86/62 57/85/61 52/96/72 
f 53/97/73 61/89/65 59/87/63 54/98/74 
f 55/99/75 63/91/67 62/90/66 56/100/76 
f 52/96/72 57/85/61 64/92/68 49/93/69 
f 50/94/70 60/88/64 63/91/67 55/99/75 
f 54/98/74 59/87/63 58/86/62 51/95/71 
f 56/100/76 62/90/66 61/89/65 53/97/73 
s 2048
f 65/101/77 66/102/78 67/103/78 68/104/78 
f 67/103/78 69/105/77 68/104/78 
f 68/104/78 70/106/78 71/107/78 65/101/77 
f 72/108/77 65/101/77 71/107/78 
s 512
f 73/109/79 74/110/80 75/111/81 76/112/82 
f 65/101/74 76/113/82 77/114/83 66/102/73 
f 67/103/76 78/115/84 79/116/85 69/105/75 
f 68/104/70 80/117/86 81/118/87 70/106/69 
f 71/107/72 82/119/88 73/120/79 72/108/71 
f 76/113/82 65/101/74 72/108/71 73/120/79 
f 78/115/84 67/103/76 66/102/73 77/114/83 
f 82/119/88 71/107/72 70/106/69 81/118/87 
f 80/117/86 68/104/70 69/105/75 79/116/85 
f 77/121/83 76/112/82 75/111/81 83/122/89 
f 79/123/85 78/124/84 84/125/90 85/126/91 
f 81/127/87 80/128/86 86/129/92 87/130/93 
f 73/109/79 82/131/88 88/132/94 74/110/80 
f 78/124/84 77/121/83 83/122/89 84/125/90 
f 80/128/86 79/123/85 85/126/91 86/129/92 
f 82/131/88 81/133/87 87/134/93 88/132/94 
f 75/111/81 74/110/80 89/135/95 90/136/96 
f 83/122/89 75/111/81 90/136/96 91/137/97 
f 85/126/91 84/125/90 92/138/98 93/139/99 
f 87/130/93 86/129/92 94/140/100 95/141/101 
f 74/110/80 88/132/94 96/142/102 89/135/95 
f 84/125/90 83/122/89 91/137/97 92/138/98 
f 86/129/92 85/126/91 93/139/99 94/140/100 
f 88/132/94 87/134/93 95/143/101 96/142/102 
s off
f 90/136/103 89/135/103 97/144/103 98/145/103 
f 91/137/103 90/136/103 98/145/103 99/146/103 
f 93/139/104 92/138/104 100/147/104 101/148/104 
f 95/141/105 94/140/105 102/149/105 103/150/105 
f 89/135/105 96/142/105 104/151/105 97/144/105 
f 92/138/103 91/137/103 99/146/103 100/147/103 
f 94/140/105 93/139/105 101/148/105 102/149/105 
f 96/142/105 95/143/105 103/152/105 104/151/105 
s 256
f 98/153/14 97/154/11 105/155/11 106/156/14 
f 99/157/57 98/153/14 106/156/14 107/158/57 
f 101/159/59 100/160/58 108/161/58 109/162/59 
f 103/163/9 102/164/60 110/165/60 111/166/9 
f 97/154/11 104/167/12 112/168/12 105/155/11 
f 100/160/58 99/157/57 107/158/57 108/161/58 
f 102/164/60 101/159/59 109/162/59 110/165/60 
f 104/167/12 103/163/9 111/166/9 112/168/12 
s 65536
f 112/168/104 111/166/105 110/165/105 106/156/104 
f 110/165/105 109/162/105 108/161/103 106/156/104 
f 108/161/103 107/158/103 106/156/104 
f 105/155/104 112/168/104 106/156/104 
# 104 polygons - 8 triangles

