v  -0.2832 0.6359 -0.5872
v  0.2832 0.6359 -0.5872
v  0.2896 0.6145 -0.6193
v  -0.2896 0.6145 -0.6193
v  -0.2961 0.0276 -0.6333
v  0.2961 0.0276 -0.6333
v  0.2896 0.0062 -0.6005
v  -0.2896 0.0062 -0.6005
v  -0.3380 0.0062 -0.5506
v  -0.3380 0.0062 0.5506
v  -0.3708 0.0276 0.5596
v  -0.3708 0.0276 -0.5596
v  -0.3700 0.1364 -0.5584
v  -0.3700 0.1364 0.5584
v  -0.2955 0.1364 -0.6319
v  -0.3626 0.6145 0.5473
v  -0.3305 0.6359 0.5385
v  -0.3305 0.6359 -0.5385
v  -0.3626 0.6145 -0.5473
v  -0.2896 0.1509 -0.6193
v  0.2896 0.1509 -0.6193
v  -0.3626 0.1509 -0.5473
v  -0.3626 0.1509 0.5473
v  0.2896 0.6145 0.6193
v  0.2832 0.6359 0.5872
v  -0.2832 0.6359 0.5872
v  -0.2896 0.6145 0.6193
v  -0.2896 0.0062 0.6005
v  0.2896 0.0062 0.6005
v  0.2961 0.0276 0.6333
v  -0.2961 0.0276 0.6333
v  -0.2955 0.1364 0.6319
v  -0.2896 0.1509 0.6193
v  0.2896 0.1509 0.6193
v  0.2955 0.1364 -0.6319
v  0.3305 0.6359 -0.5385
v  0.3305 0.6359 0.5385
v  0.3380 0.0062 -0.5506
v  0.3708 0.0276 -0.5596
v  0.3708 0.0276 0.5596
v  0.3380 0.0062 0.5506
v  0.3700 0.1364 -0.5584
v  0.3700 0.1364 0.5584
v  0.3626 0.6145 0.5473
v  0.3626 0.6145 -0.5473
v  0.3626 0.1509 -0.5473
v  0.3626 0.1509 0.5473
v  0.2955 0.1364 0.6319
# 48 vertices

vn -0.1594 0.9335 -0.3211
vn 0.1594 0.9335 -0.3211
vn 0.1959 0.8353 -0.5137
vn -0.1959 0.8353 -0.5137
vn -0.3362 -0.4297 -0.8380
vn 0.3362 -0.4297 -0.8380
vn 0.2459 -0.8334 -0.4950
vn -0.2459 -0.8334 -0.4950
vn -0.4913 -0.8411 -0.2264
vn -0.4913 -0.8411 0.2264
vn -0.8333 -0.4331 0.3436
vn -0.8333 -0.4331 -0.3436
vn -0.8639 0.3157 -0.3924
vn -0.8639 0.3157 0.3924
vn -0.3573 0.3523 -0.8650
vn -0.5054 0.8395 0.1994
vn -0.3163 0.9374 0.1457
vn -0.3163 0.9374 -0.1457
vn -0.5054 0.8395 -0.1994
vn -0.3795 0.0000 -0.9252
vn 0.3795 0.0000 -0.9252
vn -0.9226 0.0000 -0.3859
vn -0.7871 0.5752 -0.2227
vn -0.2660 0.6936 -0.6695
vn -0.7871 0.5752 0.2227
vn -0.9226 0.0000 0.3859
vn 0.1959 0.8353 0.5137
vn 0.1594 0.9335 0.3211
vn -0.1594 0.9335 0.3211
vn -0.1959 0.8353 0.5137
vn -0.2459 -0.8334 0.4950
vn 0.2459 -0.8334 0.4950
vn 0.3362 -0.4297 0.8380
vn -0.3362 -0.4297 0.8380
vn -0.3573 0.3523 0.8650
vn -0.3795 0.0000 0.9252
vn 0.3795 -0.0000 0.9252
vn 0.3795 0.0000 0.9252
vn -0.2660 0.6936 0.6695
vn 0.3573 0.3523 -0.8650
vn 0.3163 0.9374 -0.1457
vn 0.3163 0.9374 0.1457
vn 0.4913 -0.8411 -0.2264
vn 0.8333 -0.4331 -0.3436
vn 0.8333 -0.4331 0.3436
vn 0.4913 -0.8411 0.2264
vn 0.8639 0.3157 -0.3924
vn 0.8639 0.3157 0.3924
vn 0.5054 0.8395 0.1994
vn 0.5054 0.8395 -0.1994
vn 0.2660 0.6936 -0.6695
vn 0.9226 0.0000 -0.3859
vn 0.7871 0.5752 -0.2227
vn 0.7871 0.5752 0.2227
vn 0.9226 -0.0000 0.3859
vn 0.9226 0.0000 0.3859
vn 0.3573 0.3523 0.8650
vn 0.2660 0.6936 0.6695
vn 0.0000 -1.0000 0.0000
vn 0.0000 -1.0000 -0.0000
# 60 vertex normals

vt 0.4652 0.6747 0.0000
vt 0.4624 0.5715 0.0000
vt 0.4691 0.5699 0.0000
vt 0.4723 0.6763 0.0000
vt 0.9675 0.8127 0.0000
vt 0.9563 0.9187 0.0000
vt 0.9496 0.9185 0.0000
vt 0.9608 0.8109 0.0000
vt 0.9618 0.7955 0.0000
vt 0.9619 0.5916 0.0000
vt 0.9688 0.5925 0.0000
vt 0.9688 0.7952 0.0000
vt 0.9886 0.7959 0.0000
vt 0.9887 0.5928 0.0000
vt 0.9872 0.8145 0.0000
vt 0.2579 0.6915 0.0000
vt 0.2600 0.6850 0.0000
vt 0.4563 0.6832 0.0000
vt 0.4585 0.6904 0.0000
vt 0.8683 0.5662 0.0000
vt 0.9526 0.5662 0.0000
vt 0.9526 0.6715 0.0000
vt 0.8683 0.6715 0.0000
vt 0.9526 0.5476 0.0000
vt 0.8683 0.5476 0.0000
vt 0.9919 0.7949 0.0000
vt 0.9907 0.8150 0.0000
vt 0.9919 0.5941 0.0000
vt 0.8683 0.3485 0.0000
vt 0.9526 0.3485 0.0000
vt 0.2417 0.5714 0.0000
vt 0.2488 0.5729 0.0000
vt 0.2516 0.6762 0.0000
vt 0.2450 0.6777 0.0000
vt 0.9620 0.5757 0.0000
vt 0.9614 0.4668 0.0000
vt 0.9682 0.4678 0.0000
vt 0.9688 0.5746 0.0000
vt 0.9886 0.5745 0.0000
vt 0.8683 0.3299 0.0000
vt 0.8683 0.2246 0.0000
vt 0.9526 0.2246 0.0000
vt 0.9526 0.3299 0.0000
vt 0.9921 0.5744 0.0000
vt 0.9757 0.9212 0.0000
vt 0.4540 0.5627 0.0000
vt 0.2577 0.5644 0.0000
vt 0.9607 0.2484 0.0000
vt 0.9679 0.2463 0.0000
vt 0.9680 0.4499 0.0000
vt 0.9611 0.4509 0.0000
vt 0.9879 0.2460 0.0000
vt 0.9878 0.4494 0.0000
vt 0.9527 0.9367 0.0000
vt 0.9728 0.9399 0.0000
vt 0.2555 0.5573 0.0000
vt 0.4561 0.5562 0.0000
vt 0.9465 0.9319 0.0000
vt 0.9791 0.9214 0.0000
vt 0.9526 0.6901 0.0000
vt 0.8683 0.6901 0.0000
vt 0.9765 0.9406 0.0000
vt 0.9909 0.2481 0.0000
vt 0.9910 0.4481 0.0000
vt 0.8683 0.2059 0.0000
vt 0.8683 0.0069 0.0000
vt 0.9526 0.0069 0.0000
vt 0.9526 0.2059 0.0000
vt 0.9880 0.4676 0.0000
vt 0.9915 0.4677 0.0000
vt 0.5047 0.7276 0.0000
vt 0.5046 0.6047 0.0000
vt 0.7048 0.6046 0.0000
vt 0.7049 0.7275 0.0000
vt 0.7139 0.7187 0.0000
vt 0.7139 0.6134 0.0000
vt 0.4956 0.7188 0.0000
vt 0.4955 0.6135 0.0000
# 78 texture coords

g small_box003
s 1
f 1/1/1 2/2/2 3/3/3 4/4/4 
s 4
f 5/5/5 6/6/6 7/7/7 8/8/8 
f 9/9/9 10/10/10 11/11/11 12/12/12 
f 13/13/13 12/12/12 11/11/11 14/14/14 
f 12/12/12 13/13/13 15/15/15 5/5/5 
s 1
f 16/16/16 17/17/17 18/18/18 19/19/19 
f 4/4/4 19/19/19 18/18/18 1/1/1 
s 4
f 9/9/9 12/12/12 5/5/5 8/8/8 
s 2
f 20/20/20 4/21/20 3/22/21 21/23/21 
f 19/24/22 4/21/20 20/20/20 22/25/22 
s 4
f 22/26/23 20/27/24 15/15/15 13/13/13 
f 23/28/25 22/26/23 13/13/13 14/14/14 
s 2
f 19/24/22 22/25/22 23/29/26 16/30/26 
s 1
f 24/31/27 25/32/28 26/33/29 27/34/30 
s 4
f 28/35/31 29/36/32 30/37/33 31/38/34 
f 11/11/11 31/38/34 32/39/35 14/14/14 
s 1
f 27/34/30 26/33/29 17/17/17 16/16/16 
s 4
f 10/10/10 28/35/31 31/38/34 11/11/11 
s 2
f 33/40/36 34/41/37 24/42/38 27/43/36 
f 16/30/26 23/29/26 33/40/36 27/43/36 
s 4
f 23/28/25 14/14/14 32/39/35 33/44/39 
f 5/5/5 15/15/15 35/45/40 6/6/6 
s 1
f 1/1/1 18/18/18 36/46/41 2/2/2 
f 17/17/17 26/33/29 25/32/28 37/47/42 
s 4
f 38/48/43 39/49/44 40/50/45 41/51/46 
f 42/52/47 43/53/48 40/50/45 39/49/44 
f 39/54/44 6/6/6 35/45/40 42/55/47 
s 1
f 36/46/41 37/47/42 44/56/49 45/57/50 
f 3/3/3 2/2/2 36/46/41 45/57/50 
s 4
f 38/58/43 7/7/7 6/6/6 39/54/44 
f 35/45/40 15/15/15 20/27/24 21/59/51 
s 2
f 45/60/52 46/61/52 21/23/21 3/22/21 
s 4
f 46/62/53 42/55/47 35/45/40 21/59/51 
f 42/52/47 46/63/53 47/64/54 43/53/48 
s 2
f 47/65/55 46/66/52 45/67/52 44/68/56 
s 4
f 40/50/45 43/53/48 48/69/57 30/37/33 
s 1
f 24/31/27 44/56/49 37/47/42 25/32/28 
s 4
f 41/51/46 40/50/45 30/37/33 29/36/32 
f 34/70/58 33/44/39 32/39/35 48/69/57 
s 2
f 44/68/56 24/42/38 34/41/37 47/65/55 
s 4
f 47/64/54 34/70/58 48/69/57 43/53/48 
s 1
f 36/46/41 18/18/18 17/17/17 37/47/42 
s 4
f 32/39/35 31/38/34 30/37/33 48/69/57 
s 8
f 41/71/59 10/72/59 9/73/59 38/74/60 
f 7/75/60 38/74/60 9/73/59 8/76/59 
f 10/72/59 41/71/59 29/77/59 28/78/60 
# 46 polygons

