v  0.0000 0.0000 -2.5000
v  2.5000 0.0000 -2.5000
v  2.5000 0.0000 -5.0000
v  0.0000 0.0000 -5.0000
v  0.0000 0.0000 -0.0000
v  2.5000 0.0000 -0.0000
v  5.0000 0.0000 -2.5000
v  5.0000 0.0000 -5.0000
v  5.0000 0.0000 -0.0000
# 9 vertices

vn 0.0000 1.0000 -0.0000
# 1 vertex normals

vt 0.3451 0.1683 0.0000
vt 0.6076 0.1683 0.0000
vt 0.6076 0.4308 0.0000
vt 0.3451 0.4308 0.0000
vt 0.4854 0.7143 0.0000
vt 0.2229 0.7143 0.0000
vt 0.2229 0.4518 0.0000
vt 0.4854 0.4518 0.0000
vt 0.1963 0.7291 0.0000
vt 0.4588 0.7291 0.0000
vt 0.4588 0.9916 0.0000
vt 0.1963 0.9916 0.0000
vt 0.6822 0.4435 0.0000
vt 0.6822 0.1810 0.0000
vt 0.9447 0.1810 0.0000
vt 0.9447 0.4435 0.0000
# 16 texture coords

g floor002
s 1
f 1/1/1 2/2/1 3/3/1 4/4/1 
f 5/5/1 6/6/1 2/7/1 1/8/1 
f 7/9/1 8/10/1 3/11/1 2/12/1 
f 9/13/1 7/14/1 2/15/1 6/16/1 
# 4 polygons

