v  0.4000 1.0000 -1.7612
v  -0.0000 1.0000 -2.0119
v  -0.0000 1.0000 -0.5021
v  0.4000 1.0000 -0.7528
v  0.4556 0.9889 -0.7528
v  0.4556 0.9889 -1.7612
v  0.4889 0.9556 -0.7528
v  0.4889 0.9556 -1.7612
v  0.5000 0.9000 -0.7528
v  0.5000 0.9000 -1.7612
v  0.4000 1.0000 -0.0124
v  -0.0000 1.0000 -0.0124
v  -0.0000 0.9900 0.0000
v  0.3990 0.9900 -0.0000
v  0.4448 0.0042 -0.0124
v  0.4448 0.0655 -0.0124
v  0.4348 0.0655 -0.0000
v  0.4348 0.0042 -0.0000
v  0.5000 0.9000 -0.0124
v  0.4889 0.9556 -0.0124
v  0.4797 0.9506 -0.0000
v  0.4900 0.8990 -0.0000
v  0.4506 0.9797 -0.0000
v  0.4556 0.9889 -0.0124
v  0.2333 0.1662 -0.0124
v  0.2233 0.1662 -0.0000
v  0.2333 0.6700 -0.0172
v  0.2195 0.6700 -0.0000
v  0.4862 0.6712 -0.0000
v  0.4900 0.8520 -0.7528
v  0.4900 0.8520 -1.7612
v  0.4448 0.0042 -0.5021
v  0.4448 0.0655 -0.5021
v  0.4000 1.0000 -0.5021
v  0.4556 0.9889 -0.5021
v  0.4889 0.9556 -0.5021
v  0.5000 0.9000 -0.5021
v  0.2333 0.1662 -0.5021
v  0.2325 0.6700 -0.5021
v  0.2328 0.8509 -0.7528
v  0.4448 0.0655 -2.0119
v  0.2333 0.1662 -2.0119
v  0.4448 0.0042 -2.0119
v  -0.0000 0.0042 0.0000
v  0.4908 0.6712 -0.0172
v  0.4900 0.6712 -0.5021
v  -0.4000 1.0000 -1.7612
v  -0.4000 1.0000 -0.7528
v  -0.4556 0.9889 -0.7528
v  -0.4556 0.9889 -1.7612
v  -0.4000 1.0000 -0.0124
v  -0.3990 0.9900 0.0000
v  -0.4448 0.0042 -0.0124
v  -0.4348 0.0042 0.0000
v  -0.4348 0.0655 0.0000
v  -0.4448 0.0655 -0.0124
v  -0.5000 0.9000 -0.0124
v  -0.4900 0.8990 0.0000
v  -0.4797 0.9506 0.0000
v  -0.4889 0.9556 -0.0124
v  -0.4556 0.9889 -0.0124
v  -0.4506 0.9797 0.0000
v  -0.2233 0.1662 0.0000
v  -0.2333 0.1662 -0.0124
v  -0.2333 0.6700 -0.0172
v  -0.2195 0.6700 0.0000
v  -0.4862 0.6712 0.0000
v  -0.5000 0.9000 -1.7612
v  -0.4900 0.8520 -1.7612
v  -0.4900 0.8520 -0.7528
v  -0.5000 0.9000 -0.7528
v  -0.4448 0.0042 -0.5021
v  -0.4448 0.0655 -0.5021
v  -0.4000 1.0000 -0.5021
v  -0.4556 0.9889 -0.5021
v  -0.4889 0.9556 -0.5021
v  -0.5000 0.9000 -0.5021
v  -0.2325 0.6700 -0.5021
v  -0.2333 0.1662 -0.5021
v  -0.4889 0.9556 -0.7528
v  -0.2328 0.8509 -0.7528
v  -0.4908 0.6712 -0.0172
v  -0.4900 0.6712 -0.5021
v  0.4000 1.0000 -2.4824
v  0.3990 0.9900 -2.4948
v  -0.0000 0.9900 -2.4948
v  -0.0000 1.0000 -2.4824
v  0.4448 0.0042 -2.4824
v  0.4348 0.0042 -2.4948
v  0.4348 0.0655 -2.4948
v  0.4448 0.0655 -2.4824
v  0.5000 0.9000 -2.4824
v  0.4900 0.8990 -2.4948
v  0.4797 0.9506 -2.4948
v  0.4889 0.9556 -2.4824
v  0.4556 0.9889 -2.4824
v  0.4506 0.9797 -2.4948
v  0.2233 0.1662 -2.4948
v  0.2333 0.1662 -2.4824
v  0.2333 0.6700 -2.4776
v  0.2195 0.6700 -2.4948
v  0.4862 0.6712 -2.4948
v  0.4000 1.0000 -2.0119
v  0.4556 0.9889 -2.0119
v  0.4889 0.9556 -2.0119
v  0.5000 0.9000 -2.0119
v  0.2325 0.6700 -2.0119
v  0.2328 0.8509 -1.7612
v  -0.0000 0.0042 -2.4948
v  0.4908 0.6712 -2.4776
v  0.4900 0.6712 -2.0119
v  -0.4889 0.9556 -1.7612
v  -0.4000 1.0000 -2.4824
v  -0.3990 0.9900 -2.4948
v  -0.4448 0.0042 -2.4824
v  -0.4448 0.0655 -2.4824
v  -0.4348 0.0655 -2.4948
v  -0.4348 0.0042 -2.4948
v  -0.5000 0.9000 -2.4824
v  -0.4889 0.9556 -2.4824
v  -0.4797 0.9506 -2.4948
v  -0.4900 0.8990 -2.4948
v  -0.4506 0.9797 -2.4948
v  -0.4556 0.9889 -2.4824
v  -0.2333 0.1662 -2.4824
v  -0.2233 0.1662 -2.4948
v  -0.2333 0.6700 -2.4776
v  -0.2195 0.6700 -2.4948
v  -0.4862 0.6712 -2.4948
v  -0.4448 0.0042 -2.0119
v  -0.4448 0.0655 -2.0119
v  -0.4000 1.0000 -2.0119
v  -0.4556 0.9889 -2.0119
v  -0.4889 0.9556 -2.0119
v  -0.5000 0.9000 -2.0119
v  -0.2333 0.1662 -2.0119
v  -0.2325 0.6700 -2.0119
v  -0.2328 0.8509 -1.7612
v  -0.4908 0.6712 -2.4776
v  -0.4900 0.6712 -2.0119
# 140 vertices

vn 0.0985 0.9951 -0.0000
vn 0.0000 1.0000 -0.0000
vn 0.4719 0.8817 -0.0000
vn 0.8817 0.4719 -0.0000
vn 0.9997 0.0151 -0.0199
vn 0.9997 0.0151 0.0199
vn 0.0931 0.9404 0.3272
vn 0.0000 0.9431 0.3325
vn 0.0000 0.7789 0.6271
vn 0.0766 0.7736 0.6290
vn 0.9431 0.0000 0.3325
vn 0.8301 0.4824 0.2798
vn 0.6424 0.5655 0.5172
vn 0.7789 0.0000 0.6271
vn 0.9422 0.0710 0.3275
vn 0.8342 0.4464 0.3238
vn 0.6747 0.3611 0.6438
vn 0.7817 0.0546 0.6213
vn 0.3611 0.6747 0.6437
vn 0.4464 0.8342 0.3238
vn 0.7619 0.5751 0.2979
vn 0.7228 0.3729 0.5819
vn 0.9445 0.0036 0.3286
vn 0.7812 0.0059 0.6243
vn 0.0000 -0.0000 1.0000
vn 0.0000 0.0000 1.0000
vn 0.9754 -0.2033 -0.0849
vn 0.9754 -0.2033 0.0849
vn 1.0000 -0.0000 -0.0000
vn 0.8455 0.5339 -0.0000
vn 0.9970 0.0768 -0.0000
vn 0.8453 0.5343 -0.0001
vn 1.0000 0.0016 0.0008
vn 1.0000 0.0009 0.0006
vn 0.8453 0.5343 0.0001
vn 1.0000 0.0000 -0.0000
vn 0.9902 -0.0293 0.1366
vn 0.9662 -0.0162 0.2574
vn 0.9987 -0.0506 -0.0071
vn 0.0044 -1.0000 0.0020
vn 0.0045 -1.0000 0.0005
vn 0.0045 -1.0000 0.0013
vn 0.0044 -1.0000 0.0035
vn 0.0043 -0.9516 -0.3072
vn 0.0043 -0.9515 -0.3075
vn 0.0043 -0.9514 -0.3078
vn -0.4719 0.8817 0.0000
vn -0.1489 0.9889 0.0000
vn -0.0931 0.9404 0.3272
vn -0.0766 0.7736 0.6290
vn -0.9431 0.0000 0.3325
vn -0.7789 0.0000 0.6271
vn -0.6424 0.5655 0.5172
vn -0.8301 0.4824 0.2798
vn -0.9422 0.0710 0.3275
vn -0.7817 0.0546 0.6213
vn -0.6747 0.3611 0.6438
vn -0.8342 0.4464 0.3238
vn -0.4464 0.8342 0.3238
vn -0.3611 0.6747 0.6438
vn -0.7228 0.3729 0.5818
vn -0.7619 0.5751 0.2979
vn -0.9445 0.0036 0.3286
vn -0.7812 0.0059 0.6243
vn -0.9997 0.0151 0.0199
vn -0.9754 -0.2033 0.0849
vn -0.9754 -0.2033 -0.0849
vn -0.9997 0.0151 -0.0199
vn -1.0000 0.0000 0.0000
vn -0.8455 0.5339 0.0000
vn -0.0985 0.9951 0.0000
vn -0.8817 0.4719 0.0000
vn -0.9970 0.0768 0.0000
vn -1.0000 0.0016 0.0008
vn -0.8453 0.5343 -0.0001
vn -1.0000 0.0009 0.0006
vn -0.0000 0.0000 1.0000
vn -0.9902 -0.0293 0.1366
vn -0.9662 -0.0162 0.2575
vn -0.9987 -0.0506 -0.0071
vn -0.0044 -1.0000 0.0020
vn -0.0044 -1.0000 0.0035
vn -0.0045 -1.0000 0.0013
vn -0.0045 -1.0000 0.0005
vn -0.0043 -0.9516 -0.3072
vn -0.0043 -0.9515 -0.3075
vn -0.0043 -0.9514 -0.3078
vn 0.0931 0.9404 -0.3272
vn 0.0766 0.7736 -0.6290
vn -0.0000 0.7789 -0.6271
vn -0.0000 0.9431 -0.3325
vn 0.9431 0.0000 -0.3325
vn 0.7789 0.0000 -0.6272
vn 0.6424 0.5655 -0.5172
vn 0.8301 0.4824 -0.2798
vn 0.9422 0.0710 -0.3275
vn 0.7817 0.0546 -0.6213
vn 0.6747 0.3611 -0.6438
vn 0.8342 0.4464 -0.3238
vn 0.4464 0.8342 -0.3238
vn 0.3611 0.6747 -0.6438
vn 0.7228 0.3729 -0.5818
vn 0.7619 0.5751 -0.2979
vn 0.9445 0.0036 -0.3286
vn 0.7812 0.0059 -0.6243
vn -0.0000 0.0000 -1.0000
vn -0.0000 -0.0000 -1.0000
vn 1.0000 0.0016 -0.0008
vn 1.0000 0.0009 -0.0006
vn 0.0000 0.0000 -1.0000
vn 0.0000 -0.0000 -1.0000
vn 0.9902 -0.0293 -0.1366
vn 0.9662 -0.0162 -0.2574
vn 0.0043 -0.9516 0.3072
vn 0.0043 -0.9514 0.3078
vn 0.9987 -0.0506 0.0072
vn 0.0044 -1.0000 -0.0020
vn 0.0044 -1.0000 -0.0035
vn 0.0045 -1.0000 -0.0013
vn 0.0045 -1.0000 -0.0005
vn 0.0043 -0.9515 0.3075
vn -0.0931 0.9404 -0.3272
vn -0.0766 0.7736 -0.6290
vn -0.9431 0.0000 -0.3325
vn -0.8301 0.4824 -0.2798
vn -0.6424 0.5655 -0.5172
vn -0.7789 0.0000 -0.6271
vn -0.9422 0.0710 -0.3275
vn -0.8342 0.4464 -0.3238
vn -0.6747 0.3611 -0.6437
vn -0.7817 0.0546 -0.6213
vn -0.3611 0.6747 -0.6437
vn -0.4464 0.8342 -0.3238
vn -0.7619 0.5751 -0.2979
vn -0.7228 0.3729 -0.5818
vn -0.9445 0.0036 -0.3286
vn -0.7812 0.0059 -0.6243
vn -0.8453 0.5343 0.0001
vn -1.0000 0.0016 -0.0008
vn -1.0000 0.0009 -0.0006
vn -0.9902 -0.0293 -0.1366
vn -0.9662 -0.0162 -0.2575
vn -0.0043 -0.9516 0.3072
vn -0.0043 -0.9514 0.3078
vn -0.9987 -0.0506 0.0072
vn -0.0044 -1.0000 -0.0020
vn -0.0045 -1.0000 -0.0005
vn -0.0045 -1.0000 -0.0013
vn -0.0044 -1.0000 -0.0035
vn -0.0043 -0.9515 0.3075
# 150 vertex normals

vt 0.2465 0.7405 0.0000
vt 0.3165 0.7062 0.0000
vt 0.3129 0.9157 0.0000
vt 0.2434 0.8804 0.0000
vt 0.2334 0.8804 0.0000
vt 0.2368 0.7405 0.0000
vt 0.2252 0.8804 0.0000
vt 0.2285 0.7405 0.0000
vt 0.2153 0.8803 0.0000
vt 0.2187 0.7404 0.0000
vt 0.2431 0.9835 0.0000
vt 0.3128 0.9837 0.0000
vt 0.3128 0.9861 0.0000
vt 0.2430 0.9859 0.0000
vt 0.6045 0.6376 0.0000
vt 0.5940 0.6378 0.0000
vt 0.5932 0.6356 0.0000
vt 0.6043 0.6350 0.0000
vt 0.2156 0.9831 0.0000
vt 0.2253 0.9831 0.0000
vt 0.2253 0.9855 0.0000
vt 0.2156 0.9855 0.0000
vt 0.2332 0.9856 0.0000
vt 0.2333 0.9832 0.0000
vt 0.5532 0.6378 0.0000
vt 0.5524 0.6356 0.0000
vt 0.4651 0.6388 0.0000
vt 0.4650 0.6354 0.0000
vt 0.8178 0.7952 0.0000
vt 0.8560 0.7394 0.0000
vt 0.9025 0.7396 0.0000
vt 0.9032 0.7793 0.0000
vt 0.2067 0.8802 0.0000
vt 0.2102 0.7403 0.0000
vt 0.6048 0.7056 0.0000
vt 0.5941 0.7056 0.0000
vt 0.2432 0.9154 0.0000
vt 0.2333 0.9153 0.0000
vt 0.2251 0.9152 0.0000
vt 0.2153 0.9151 0.0000
vt 0.5533 0.7057 0.0000
vt 0.4655 0.7060 0.0000
vt 0.4341 0.7409 0.0000
vt 0.5948 0.9149 0.0000
vt 0.5540 0.9151 0.0000
vt 0.6055 0.9149 0.0000
vt 0.8936 0.6234 0.0000
vt 0.8936 0.6340 0.0000
vt 0.8178 0.6234 0.0000
vt 0.9014 0.7883 0.0000
vt 0.8963 0.7934 0.0000
vt 0.8873 0.7952 0.0000
vt 0.8567 0.6516 0.0000
vt 0.1757 0.9826 0.0000
vt 0.1757 0.9851 0.0000
vt 0.1753 0.9152 0.0000
vt 0.7160 0.6122 0.0000
vt 0.6711 0.6122 0.0000
vt 0.6719 0.6098 0.0000
vt 0.7184 0.6098 0.0000
vt 0.7161 0.6794 0.0000
vt 0.6712 0.6794 0.0000
vt 0.7159 0.7263 0.0000
vt 0.6711 0.7263 0.0000
vt 0.3860 0.7414 0.0000
vt 0.3828 0.8814 0.0000
vt 0.3926 0.8814 0.0000
vt 0.3960 0.7414 0.0000
vt 0.3826 0.9839 0.0000
vt 0.3826 0.9864 0.0000
vt 0.0194 0.6319 0.0000
vt 0.0196 0.6294 0.0000
vt 0.0307 0.6299 0.0000
vt 0.0299 0.6321 0.0000
vt 0.4098 0.9843 0.0000
vt 0.4097 0.9867 0.0000
vt 0.4001 0.9865 0.0000
vt 0.4002 0.9841 0.0000
vt 0.3923 0.9840 0.0000
vt 0.3923 0.9864 0.0000
vt 0.0715 0.6296 0.0000
vt 0.0707 0.6318 0.0000
vt 0.1588 0.6323 0.0000
vt 0.1589 0.6289 0.0000
vt 0.7324 0.7793 0.0000
vt 0.7330 0.7396 0.0000
vt 0.7795 0.7394 0.0000
vt 0.4141 0.7416 0.0000
vt 0.4226 0.7417 0.0000
vt 0.4192 0.8816 0.0000
vt 0.4107 0.8815 0.0000
vt 0.0195 0.6999 0.0000
vt 0.0302 0.6999 0.0000
vt 0.3826 0.9160 0.0000
vt 0.3924 0.9161 0.0000
vt 0.4005 0.9162 0.0000
vt 0.4104 0.9163 0.0000
vt 0.1588 0.6995 0.0000
vt 0.0710 0.6997 0.0000
vt 0.4008 0.8814 0.0000
vt 0.1904 0.7341 0.0000
vt 0.7420 0.6234 0.0000
vt 0.7420 0.6340 0.0000
vt 0.7342 0.7883 0.0000
vt 0.7482 0.7952 0.0000
vt 0.7392 0.7934 0.0000
vt 0.7789 0.6516 0.0000
vt 0.4496 0.9840 0.0000
vt 0.4496 0.9865 0.0000
vt 0.4503 0.9167 0.0000
vt 0.6164 0.6120 0.0000
vt 0.6140 0.6096 0.0000
vt 0.6605 0.6096 0.0000
vt 0.6613 0.6120 0.0000
vt 0.6163 0.6792 0.0000
vt 0.6612 0.6792 0.0000
vt 0.6165 0.7261 0.0000
vt 0.6613 0.7261 0.0000
vt 0.2468 0.6380 0.0000
vt 0.2467 0.6355 0.0000
vt 0.3166 0.6358 0.0000
vt 0.3165 0.6382 0.0000
vt 0.6056 0.9829 0.0000
vt 0.6054 0.9854 0.0000
vt 0.5943 0.9849 0.0000
vt 0.5951 0.9827 0.0000
vt 0.2196 0.6376 0.0000
vt 0.2196 0.6352 0.0000
vt 0.2293 0.6353 0.0000
vt 0.2292 0.6378 0.0000
vt 0.2371 0.6379 0.0000
vt 0.2371 0.6355 0.0000
vt 0.5535 0.9852 0.0000
vt 0.5542 0.9830 0.0000
vt 0.4662 0.9825 0.0000
vt 0.4661 0.9859 0.0000
vt 0.8142 0.9781 0.0000
vt 0.7288 0.9623 0.0000
vt 0.7295 0.9226 0.0000
vt 0.7760 0.9224 0.0000
vt 0.2467 0.7059 0.0000
vt 0.2370 0.7058 0.0000
vt 0.2289 0.7057 0.0000
vt 0.2190 0.7056 0.0000
vt 0.4661 0.9153 0.0000
vt 0.4345 0.8807 0.0000
vt 0.7385 0.8063 0.0000
vt 0.8142 0.8063 0.0000
vt 0.7385 0.8170 0.0000
vt 0.7306 0.9713 0.0000
vt 0.7447 0.9781 0.0000
vt 0.7357 0.9763 0.0000
vt 0.7753 0.8345 0.0000
vt 0.1797 0.6379 0.0000
vt 0.1797 0.6354 0.0000
vt 0.6711 0.8662 0.0000
vt 0.7159 0.8662 0.0000
vt 0.1791 0.7051 0.0000
vt 0.7160 0.9803 0.0000
vt 0.7184 0.9827 0.0000
vt 0.6719 0.9827 0.0000
vt 0.6711 0.9803 0.0000
vt 0.7161 0.9131 0.0000
vt 0.6712 0.9131 0.0000
vt 0.4042 0.7415 0.0000
vt 0.3863 0.6384 0.0000
vt 0.3864 0.6360 0.0000
vt 0.0205 0.9772 0.0000
vt 0.0310 0.9770 0.0000
vt 0.0318 0.9792 0.0000
vt 0.0207 0.9798 0.0000
vt 0.4138 0.6388 0.0000
vt 0.4041 0.6388 0.0000
vt 0.4041 0.6363 0.0000
vt 0.4138 0.6363 0.0000
vt 0.3962 0.6362 0.0000
vt 0.3961 0.6387 0.0000
vt 0.0718 0.9770 0.0000
vt 0.0726 0.9792 0.0000
vt 0.1598 0.9760 0.0000
vt 0.1600 0.9794 0.0000
vt 0.8525 0.9224 0.0000
vt 0.8990 0.9226 0.0000
vt 0.8997 0.9623 0.0000
vt 0.0201 0.9092 0.0000
vt 0.0308 0.9092 0.0000
vt 0.3862 0.7065 0.0000
vt 0.3960 0.7066 0.0000
vt 0.4042 0.7067 0.0000
vt 0.4141 0.7068 0.0000
vt 0.0717 0.9091 0.0000
vt 0.1595 0.9088 0.0000
vt 0.1909 0.8739 0.0000
vt 0.8900 0.8063 0.0000
vt 0.8900 0.8170 0.0000
vt 0.8979 0.9713 0.0000
vt 0.8928 0.9763 0.0000
vt 0.8838 0.9781 0.0000
vt 0.8532 0.8345 0.0000
vt 0.4537 0.6393 0.0000
vt 0.4537 0.6368 0.0000
vt 0.6613 0.8660 0.0000
vt 0.6165 0.8660 0.0000
vt 0.4540 0.7067 0.0000
vt 0.6164 0.9801 0.0000
vt 0.6613 0.9801 0.0000
vt 0.6605 0.9825 0.0000
vt 0.6140 0.9825 0.0000
vt 0.6163 0.9129 0.0000
vt 0.6612 0.9129 0.0000
# 210 texture coords

g office_desk001
s 1
f 1/1/1 2/2/2 3/3/2 4/4/1 
f 1/1/1 4/4/1 5/5/3 6/6/3 
f 6/6/3 5/5/3 7/7/4 8/8/4 
f 8/8/4 7/7/4 9/9/5 10/10/6 
f 11/11/7 12/12/8 13/13/9 14/14/10 
s 4
f 15/15/11 16/16/12 17/17/13 18/18/14 
s 1
f 19/19/15 20/20/16 21/21/17 22/22/18 
f 11/11/7 14/14/10 23/23/19 24/24/20 
f 24/24/20 23/23/19 21/21/17 20/20/16 
s 4
f 16/16/12 25/25/21 26/26/22 17/17/13 
f 27/27/23 28/28/24 26/26/22 25/25/21 
s 128
f 13/29/25 28/30/25 29/31/26 22/32/25 
s 1
f 30/33/27 31/34/28 10/10/6 9/9/5 
s 4
f 32/35/29 33/36/30 16/16/12 15/15/11 
s 1
f 34/37/1 11/11/7 24/24/20 35/38/3 
f 35/38/3 24/24/20 20/20/16 36/39/4 
f 36/39/4 20/20/16 19/19/15 37/40/31 
s 4
f 27/27/23 25/25/21 38/41/32 39/42/33 
s 1
f 4/4/1 3/3/2 34/37/1 
f 35/38/3 5/5/3 4/4/1 34/37/1 
f 36/39/4 7/7/4 5/5/3 35/38/3 
f 37/40/31 9/9/5 7/7/4 36/39/4 
s 4
f 40/43/34 39/42/33 38/41/32 
f 33/36/30 41/44/30 42/45/35 38/41/32 
f 32/35/29 43/46/36 41/44/30 33/36/30 
s 1
f 3/3/2 12/12/8 11/11/7 34/37/1 
s 128
f 18/47/26 17/48/26 44/49/26 
f 21/50/25 23/51/26 14/52/26 13/29/25 
f 17/48/26 26/53/26 44/49/26 
f 22/32/25 21/50/25 13/29/25 
s 1
f 45/54/37 19/19/15 22/22/18 29/55/38 
f 46/56/39 37/40/31 19/19/15 45/54/37 
f 9/9/5 37/40/31 46/56/39 30/33/27 
s 2
f 27/57/40 45/58/41 29/59/42 28/60/43 
f 39/61/44 46/62/45 45/58/41 27/57/40 
f 40/63/46 30/64/44 46/62/45 39/61/44 
s 128
f 44/49/26 26/53/26 28/30/25 13/29/25 
s 4
f 33/36/30 38/41/32 25/25/21 16/16/12 
s 2
f 3/3/2 2/2/2 47/65/2 48/66/2 
s 1
f 49/67/47 48/66/48 47/65/48 50/68/47 
f 51/69/49 52/70/50 13/13/9 12/12/8 
s 4
f 53/71/51 54/72/52 55/73/53 56/74/54 
s 1
f 57/75/55 58/76/56 59/77/57 60/78/58 
f 51/69/49 61/79/59 62/80/60 52/70/50 
f 61/79/59 60/78/58 59/77/57 62/80/60 
s 4
f 56/74/54 55/73/53 63/81/61 64/82/62 
f 65/83/63 64/82/62 63/81/61 66/84/64 
s 128
f 13/29/25 58/85/26 67/86/25 66/87/25 
s 1
f 68/88/65 69/89/66 70/90/67 71/91/68 
s 4
f 72/92/69 53/71/51 56/74/54 73/93/70 
s 1
f 74/94/71 75/95/47 61/79/59 51/69/49 
f 75/95/47 76/96/72 60/78/58 61/79/59 
f 76/96/72 77/97/73 57/75/55 60/78/58 
s 4
f 65/83/63 78/98/74 79/99/75 64/82/62 
s 1
f 48/66/48 74/94/71 3/3/2 
f 75/95/47 74/94/71 48/66/48 49/67/47 
f 76/96/72 75/95/47 49/67/47 80/100/72 
f 77/97/73 76/96/72 80/100/72 71/91/68 
s 4
f 81/101/76 79/99/75 78/98/74 
s 1
f 3/3/2 74/94/71 51/69/49 12/12/8 
s 128
f 54/102/26 44/49/26 55/103/26 
f 59/104/77 13/29/25 52/105/25 62/106/77 
f 55/103/26 44/49/26 63/107/26 
f 58/85/26 13/29/25 59/104/77 
s 1
f 82/108/78 67/109/79 58/76/56 57/75/55 
f 83/110/80 82/108/78 57/75/55 77/97/73 
f 71/91/68 70/90/67 83/110/80 77/97/73 
s 2
f 65/111/81 66/112/82 67/113/83 82/114/84 
f 78/115/85 65/111/81 82/114/84 83/116/86 
f 81/117/87 78/115/85 83/116/86 70/118/85 
s 128
f 44/49/26 13/29/25 66/87/25 63/107/26 
s 4
f 73/93/70 56/74/54 64/82/62 79/99/75 
s 1
f 84/119/88 85/120/89 86/121/90 87/122/91 
s 4
f 88/123/92 89/124/93 90/125/94 91/126/95 
s 1
f 92/127/96 93/128/97 94/129/98 95/130/99 
f 84/119/88 96/131/100 97/132/101 85/120/89 
f 96/131/100 95/130/99 94/129/98 97/132/101 
s 4
f 91/126/95 90/125/94 98/133/102 99/134/103 
f 100/135/104 99/134/103 98/133/102 101/136/105 
s 128
f 86/137/106 93/138/107 102/139/106 101/140/106 
s 4
f 43/46/36 88/123/92 91/126/95 41/44/30 
s 1
f 103/141/1 104/142/3 96/131/100 84/119/88 
f 104/142/3 105/143/4 95/130/99 96/131/100 
f 105/143/4 106/144/31 92/127/96 95/130/99 
s 4
f 100/135/104 107/145/108 42/45/35 99/134/103 
s 1
f 1/1/1 103/141/1 2/2/2 
f 104/142/3 103/141/1 1/1/1 6/6/3 
f 105/143/4 104/142/3 6/6/3 8/8/4 
f 106/144/31 105/143/4 8/8/4 10/10/6 
s 4
f 108/146/109 42/45/35 107/145/108 
s 1
f 2/2/2 103/141/1 84/119/88 87/122/91 
s 128
f 89/147/110 109/148/107 90/149/111 
f 94/150/107 86/137/106 85/151/107 97/152/110 
f 90/149/111 109/148/107 98/153/107 
f 93/138/107 86/137/106 94/150/107 
s 1
f 110/154/112 102/155/113 93/128/97 92/127/96 
s 2
f 31/156/114 30/64/44 40/63/46 108/157/115 
s 1
f 111/158/116 110/154/112 92/127/96 106/144/31 
f 10/10/6 31/34/28 111/158/116 106/144/31 
s 2
f 100/159/117 101/160/118 102/161/119 110/162/120 
f 107/163/114 100/159/117 110/162/120 111/164/121 
f 108/157/115 107/163/114 111/164/121 31/156/114 
s 128
f 109/148/107 86/137/106 101/140/106 98/153/107 
s 4
f 40/43/34 38/41/32 42/45/35 108/146/109 
f 41/44/30 91/126/95 99/134/103 42/45/35 
s 1
f 80/100/72 49/67/47 50/68/47 112/165/72 
f 80/100/72 112/165/72 68/88/65 71/91/68 
f 113/166/122 87/122/91 86/121/90 114/167/123 
s 4
f 115/168/124 116/169/125 117/170/126 118/171/127 
s 1
f 119/172/128 120/173/129 121/174/130 122/175/131 
f 113/166/122 114/167/123 123/176/132 124/177/133 
f 124/177/133 123/176/132 121/174/130 120/173/129 
s 4
f 116/169/125 125/178/134 126/179/135 117/170/126 
f 127/180/136 128/181/137 126/179/135 125/178/134 
s 128
f 86/137/106 128/182/110 129/183/110 122/184/110 
s 4
f 130/185/69 131/186/70 116/169/125 115/168/124 
s 1
f 132/187/71 113/166/122 124/177/133 133/188/47 
f 133/188/47 124/177/133 120/173/129 134/189/72 
f 134/189/72 120/173/129 119/172/128 135/190/73 
s 4
f 127/180/136 125/178/134 136/191/138 137/192/139 
s 1
f 47/65/48 2/2/2 132/187/71 
f 133/188/47 50/68/47 47/65/48 132/187/71 
f 134/189/72 112/165/72 50/68/47 133/188/47 
f 135/190/73 68/88/65 112/165/72 134/189/72 
s 4
f 138/193/140 137/192/139 136/191/138 
f 136/191/138 131/186/70 73/93/70 79/99/75 
f 130/185/69 72/92/69 73/93/70 131/186/70 
s 1
f 2/2/2 87/122/91 113/166/122 132/187/71 
s 128
f 118/194/110 117/195/110 109/148/107 
f 121/196/110 123/197/110 114/198/110 86/137/106 
f 117/195/110 126/199/110 109/148/107 
f 122/184/110 121/196/110 86/137/106 
s 1
f 139/200/141 119/172/128 122/175/131 129/201/142 
s 2
f 69/202/143 138/203/144 81/117/87 70/118/85 
s 1
f 140/204/145 135/190/73 119/172/128 139/200/141 
f 68/88/65 135/190/73 140/204/145 69/89/66 
s 2
f 127/205/146 139/206/147 129/207/148 128/208/149 
f 137/209/143 140/210/150 139/206/147 127/205/146 
f 138/203/144 69/202/143 140/210/150 137/209/143 
s 128
f 109/148/107 126/199/110 128/182/110 86/137/106 
s 4
f 136/191/138 79/99/75 81/101/76 138/193/140 
f 131/186/70 136/191/138 125/178/134 116/169/125 
# 122 polygons - 20 triangles

