mtllib wallComplex.mtl

v  2.5000 0.0000 -5.0000
v  1.2969 0.0000 -5.0000
v  1.2969 0.0000 -0.0000
v  2.5000 0.0000 -0.0000
v  0.0000 0.0000 -5.0000
v  0.0000 0.0000 -0.0000
v  2.5812 2.8000 -4.4125
v  2.5812 2.8000 -0.5875
v  2.9040 2.8000 -0.5875
v  2.9040 2.8000 -4.4125
v  2.4873 2.6871 -4.4125
v  2.4873 2.6871 -0.5875
v  2.4873 2.7046 -0.5875
v  2.4873 2.7046 -4.4125
v  2.3951 2.6367 -0.6061
v  2.3951 2.6367 -4.3939
v  2.4166 -0.0000 -0.4418
v  2.4166 0.3009 -0.4418
v  2.4166 0.2973 -0.5875
v  2.4166 -0.0000 -0.5875
v  2.4873 0.4053 -0.0000
v  2.4873 0.4053 -0.1466
v  2.4166 0.3009 -0.1467
v  2.4166 0.3009 -0.0000
v  2.4873 0.4044 -0.5875
v  2.4873 0.4053 -0.4410
v  2.4873 2.6970 -0.4401
v  2.5859 2.8000 -0.4401
v  2.5859 2.8000 -0.1465
v  2.9040 2.8000 -0.0000
v  2.9040 -0.0000 -0.0000
v  2.4873 2.6970 -0.1465
v  2.4873 2.6970 -0.0000
v  2.5843 2.8000 -0.0000
v  2.5859 0.4053 -0.4401
v  2.5859 0.4053 -0.1465
v  2.4166 -0.0000 -0.1467
v  2.4166 -0.0000 -0.0000
v  2.5853 2.4999 -4.6823
v  2.5853 2.4999 -4.8144
v  2.4021 2.4920 -4.8144
v  2.4021 2.4920 -4.6823
v  2.5853 2.4341 -4.5820
v  2.3399 1.6919 -4.5820
v  2.3399 0.4076 -4.5820
v  2.5853 0.0020 -4.5803
v  2.2861 1.6943 -4.8264
v  2.5853 2.4879 -4.8264
v  2.5853 0.0020 -4.8264
v  2.2861 0.4082 -4.8264
v  2.3461 2.4680 -4.8144
v  2.3461 2.4680 -4.6823
v  2.3061 2.4280 -4.8144
v  2.3061 2.4280 -4.6823
v  2.2821 2.3720 -4.8144
v  2.2821 2.3720 -4.6823
v  2.2741 2.3000 -4.8144
v  2.2741 2.3000 -4.6823
v  2.4174 2.4341 -4.5820
v  2.3773 2.4220 -4.5821
v  2.3521 2.3968 -4.5821
v  2.3400 2.3567 -4.5820
v  2.3399 2.2961 -4.5820
v  2.4051 2.4802 -4.8264
v  2.2065 0.5538 -4.8144
v  2.2065 1.5215 -4.8144
v  2.2938 2.3689 -4.8264
v  2.2861 2.2993 -4.8264
v  2.3162 2.4211 -4.8264
v  2.3530 2.4579 -4.8264
v  2.3399 0.0020 -4.5820
v  2.2850 0.0020 -4.8264
v  2.2065 1.5215 -4.6823
v  2.2741 1.6948 -4.6823
v  2.2741 1.6948 -4.8144
v  2.2741 0.4083 -4.8144
v  2.2741 0.4083 -4.6823
v  2.2065 0.5538 -4.6823
v  2.2730 0.0020 -4.8144
v  2.2730 0.0020 -4.6823
v  2.2741 2.2810 -4.7954
v  2.2741 2.2810 -4.7013
v  2.2741 1.7138 -4.7954
v  2.2741 1.7138 -4.7013
v  2.2536 1.7148 -4.7944
v  2.2536 2.2800 -4.7944
v  2.2536 1.7148 -4.7023
v  2.2536 2.2800 -4.7023
v  2.3951 0.6986 -0.5963
v  2.4166 0.2973 -4.4125
v  2.4166 0.0000 -4.4125
v  2.4873 0.4044 -4.4125
v  2.9040 0.0000 -5.0000
v  2.3951 0.6986 -4.4037
v  2.4166 0.0000 -4.5582
v  2.4166 0.3009 -4.5582
v  2.4873 0.4053 -5.0000
v  2.4166 0.3009 -5.0000
v  2.4166 0.3009 -4.8533
v  2.4873 0.4053 -4.8534
v  2.4873 2.6970 -4.5599
v  2.4873 0.4053 -4.5591
v  2.5859 2.8000 -4.5599
v  2.9040 2.8000 -5.0000
v  2.5859 2.8000 -4.8535
v  2.4873 2.6970 -4.8535
v  2.4873 2.6970 -5.0000
v  2.5843 2.8000 -5.0000
v  2.5859 0.4053 -4.5599
v  2.5859 0.4053 -4.8535
v  2.4166 0.0000 -4.8533
v  2.4166 0.0000 -5.0000
v  2.5853 2.4999 -0.3170
v  2.4021 2.4920 -0.3170
v  2.4021 2.4920 -0.1849
v  2.5853 2.4999 -0.1849
v  2.5853 2.4341 -0.4173
v  2.5853 0.0020 -0.4190
v  2.3399 0.4076 -0.4174
v  2.3399 1.6919 -0.4174
v  2.2861 1.6943 -0.1729
v  2.2861 0.4082 -0.1729
v  2.5853 0.0020 -0.1729
v  2.5853 2.4879 -0.1729
v  2.3461 2.4680 -0.3170
v  2.3461 2.4680 -0.1849
v  2.3061 2.4280 -0.3170
v  2.3061 2.4280 -0.1849
v  2.2821 2.3720 -0.3170
v  2.2821 2.3720 -0.1849
v  2.2741 2.3000 -0.3170
v  2.2741 2.3000 -0.1849
v  2.4174 2.4341 -0.4173
v  2.3773 2.4220 -0.4173
v  2.3521 2.3968 -0.4173
v  2.3400 2.3567 -0.4173
v  2.3399 2.2961 -0.4174
v  2.4051 2.4802 -0.1729
v  2.2065 1.5215 -0.1849
v  2.2065 0.5538 -0.1849
v  2.2861 2.2993 -0.1729
v  2.2938 2.3689 -0.1729
v  2.3162 2.4211 -0.1729
v  2.3530 2.4579 -0.1729
v  2.3399 0.0020 -0.4174
v  2.2850 0.0020 -0.1729
v  2.2065 1.5215 -0.3170
v  2.2741 1.6948 -0.1849
v  2.2741 1.6948 -0.3170
v  2.2065 0.5538 -0.3170
v  2.2741 0.4083 -0.3170
v  2.2741 0.4083 -0.1849
v  2.2730 0.0020 -0.3170
v  2.2730 0.0020 -0.1849
v  2.2741 2.2810 -0.2980
v  2.2741 2.2810 -0.2039
v  2.2741 1.7138 -0.2039
v  2.2741 1.7138 -0.2980
v  2.2536 2.2800 -0.2049
v  2.2536 1.7148 -0.2049
v  2.2536 1.7148 -0.2970
v  2.2536 2.2800 -0.2970
# 162 vertices

vn 0.0000 1.0000 -0.0000
vn 0.0000 1.0000 0.0000
vn -1.0000 0.0000 -0.0000
vn -1.0000 -0.0000 0.0000
vn -0.9232 0.3842 0.0100
vn -0.9232 0.3843 -0.0100
vn -0.8443 0.5359 -0.0000
vn -0.4797 0.8774 0.0000
vn -1.0000 0.0000 0.0000
vn -0.9558 0.2939 -0.0022
vn -0.9583 0.2857 -0.0035
vn -0.8282 0.5605 0.0000
vn -0.9561 0.2931 0.0000
vn -0.9561 0.2931 -0.0000
vn -0.9309 0.3651 0.0153
vn -0.7220 0.6915 0.0230
vn -0.7150 0.6990 0.0149
vn 1.0000 0.0000 0.0000
vn 1.0000 -0.0000 0.0000
vn -0.9280 0.3727 -0.0000
vn -0.9287 0.3707 -0.0022
vn -0.7280 0.6856 -0.0082
vn -0.7250 0.6887 -0.0040
vn 0.0008 0.7074 -0.7069
vn -0.0001 0.0000 -1.0000
vn 0.0000 0.0000 -1.0000
vn 0.0008 0.7069 -0.7074
vn -0.0001 -0.0000 1.0000
vn -0.0058 0.7051 0.7091
vn -0.0056 0.7088 0.7054
vn 0.0000 0.0000 1.0000
vn -0.8330 0.5532 -0.0045
vn -0.8282 0.5605 -0.0019
vn -0.0414 0.9580 0.2839
vn -0.0399 0.9246 -0.3787
vn -0.2068 0.9054 -0.3708
vn -0.2101 0.9417 0.2629
vn -0.0004 0.0001 1.0000
vn 0.0002 0.0000 1.0000
vn -0.0056 0.0006 1.0000
vn -0.0064 0.0002 1.0000
vn -0.0000 0.0000 -1.0000
vn -0.5206 0.7689 -0.3712
vn -0.5388 0.8046 0.2496
vn -0.7689 0.5206 -0.3712
vn -0.8032 0.5438 0.2434
vn -0.8972 0.2365 -0.3730
vn -0.9363 0.2349 0.2610
vn -0.9242 0.0512 -0.3784
vn -0.9574 0.0531 0.2838
vn -0.0232 0.8469 0.5312
vn -0.1378 0.8573 0.4960
vn -0.4460 0.7527 0.4842
vn -0.7360 0.4557 0.5006
vn -0.8514 0.1221 0.5102
vn -0.8455 0.0168 0.5338
vn -0.0305 0.7069 -0.7067
vn -0.1546 0.6854 -0.7115
vn -0.6317 -0.1156 -0.7665
vn -0.7811 -0.1567 -0.6044
vn -0.7807 0.1326 -0.6107
vn -0.6398 0.1056 -0.7612
vn -0.6800 0.1793 -0.7109
vn -0.7055 0.0391 -0.7077
vn -0.5802 0.3928 -0.7135
vn -0.3928 0.5802 -0.7135
vn -0.0003 0.0006 1.0000
vn 0.0003 0.0008 1.0000
vn 0.0001 0.0003 1.0000
vn -0.0068 -0.0000 1.0000
vn -0.9052 0.1360 0.4027
vn -0.9386 0.1813 0.2934
vn -0.9011 0.1752 -0.3967
vn -0.8951 -0.2073 -0.3947
vn -0.9327 -0.2138 0.2905
vn -0.9033 -0.1623 0.3972
vn -0.7786 -0.0893 0.6211
vn -0.7829 0.0863 0.6162
vn -0.9240 0.0026 -0.3825
vn -0.9573 0.0017 0.2891
vn -0.8319 0.0000 0.5550
vn -0.7071 0.0020 -0.7071
vn -1.0000 -0.0000 -0.0000
vn -0.0479 0.0000 -0.9989
vn -0.0479 -0.9989 -0.0000
vn -0.0479 0.0000 0.9989
vn -0.0479 0.9989 -0.0000
vn -0.0001 -0.0008 1.0000
vn -0.0012 0.0012 1.0000
vn -0.1960 0.0047 0.9806
vn -0.2005 0.0050 0.9797
vn -0.0969 0.0001 0.9953
vn -0.0951 0.0000 0.9955
vn -0.9583 0.2857 0.0035
vn -0.7150 0.6990 -0.0149
vn -0.8330 0.5532 0.0045
vn 1.0000 -0.0000 -0.0000
vn -0.9542 -0.2991 -0.0000
vn -0.9882 -0.1529 -0.0000
vn -0.9558 0.2939 0.0022
vn -0.9309 0.3651 -0.0153
vn -0.7220 0.6915 -0.0230
vn 1.0000 0.0000 -0.0000
vn -0.9287 0.3707 0.0022
vn -0.7250 0.6887 0.0040
vn -0.7280 0.6856 0.0082
vn 0.0008 0.7074 0.7069
vn 0.0008 0.7069 0.7074
vn -0.0001 0.0000 1.0000
vn -0.0001 -0.0000 -1.0000
vn -0.0056 0.7088 -0.7054
vn -0.0058 0.7051 -0.7091
vn -0.8282 0.5605 0.0019
vn -0.0414 0.9580 -0.2839
vn -0.2101 0.9417 -0.2629
vn -0.2068 0.9054 0.3708
vn -0.0399 0.9246 0.3787
vn -0.0004 0.0001 -1.0000
vn -0.0064 0.0002 -1.0000
vn -0.0056 0.0006 -1.0000
vn 0.0002 0.0000 -1.0000
vn -0.5388 0.8046 -0.2496
vn -0.5206 0.7689 0.3712
vn -0.8032 0.5438 -0.2434
vn -0.7689 0.5206 0.3712
vn -0.9363 0.2349 -0.2610
vn -0.8972 0.2365 0.3730
vn -0.9574 0.0531 -0.2838
vn -0.9243 0.0512 0.3783
vn -0.0232 0.8469 -0.5312
vn -0.1378 0.8573 -0.4960
vn -0.4460 0.7527 -0.4842
vn -0.7360 0.4557 -0.5006
vn -0.8514 0.1221 -0.5102
vn -0.8455 0.0168 -0.5338
vn -0.0305 0.7069 0.7067
vn -0.1546 0.6854 0.7115
vn -0.6318 -0.1157 0.7665
vn -0.6399 0.1056 0.7612
vn -0.7807 0.1326 0.6107
vn -0.7811 -0.1567 0.6044
vn -0.7055 0.0391 0.7076
vn -0.6800 0.1793 0.7109
vn -0.5802 0.3928 0.7135
vn -0.3928 0.5802 0.7135
vn -0.0003 0.0006 -1.0000
vn 0.0001 0.0003 -1.0000
vn 0.0001 0.0008 -1.0000
vn -0.0068 -0.0000 -1.0000
vn -0.9052 0.1360 -0.4027
vn -0.9011 0.1752 0.3966
vn -0.9386 0.1813 -0.2934
vn -0.9033 -0.1623 -0.3972
vn -0.9327 -0.2138 -0.2905
vn -0.8951 -0.2073 0.3947
vn -0.7786 -0.0893 -0.6211
vn -0.7829 0.0863 -0.6162
vn -0.9573 0.0017 -0.2891
vn -0.9240 0.0026 0.3824
vn -0.8319 -0.0000 -0.5550
vn -0.7071 0.0020 0.7071
vn -0.0001 -0.0007 -1.0000
vn -0.0012 0.0012 -1.0000
vn -0.1960 0.0047 -0.9806
vn -0.0951 -0.0000 -0.9955
vn -0.0969 0.0001 -0.9953
vn -0.2005 0.0050 -0.9797
# 167 vertex normals

vt 0.3984 0.1396 0.0000
vt 0.3984 0.0133 0.0000
vt 0.9234 0.0133 0.0000
vt 0.9234 0.1396 0.0000
vt 0.1775 0.3673 0.0000
vt 0.1775 0.8923 0.0000
vt 0.0414 0.8923 0.0000
vt 0.0414 0.3673 0.0000
vt 0.8637 0.0974 0.0000
vt 0.5537 0.0974 0.0000
vt 0.5537 0.1235 0.0000
vt 0.8637 0.1235 0.0000
vt 0.7243 0.4792 0.0000
vt 0.7242 0.1692 0.0000
vt 0.7228 0.1693 0.0000
vt 0.7228 0.4792 0.0000
vt 0.6938 0.1851 0.0000
vt 0.7023 0.1836 0.0000
vt 0.7023 0.4937 0.0000
vt 0.6938 0.4921 0.0000
vt 0.9870 0.4560 0.0000
vt 0.9626 0.4560 0.0000
vt 0.9629 0.4442 0.0000
vt 0.9870 0.4442 0.0000
vt 0.9524 0.4918 0.0000
vt 0.9524 0.4799 0.0000
vt 0.9626 0.4799 0.0000
vt 0.9626 0.4918 0.0000
vt 0.9092 0.1693 0.0000
vt 0.9092 0.1574 0.0000
vt 0.7234 0.1573 0.0000
vt 0.7118 0.1572 0.0000
vt 0.7120 0.1692 0.0000
vt 0.5418 0.0978 0.0000
vt 0.5180 0.0978 0.0000
vt 0.5061 0.1235 0.0000
vt 0.7378 0.4707 0.0000
vt 0.8684 0.4707 0.0000
vt 0.7378 0.4433 0.0000
vt 0.7488 0.2295 0.0000
vt 0.9346 0.2295 0.0000
vt 0.9346 0.2177 0.0000
vt 0.7488 0.2177 0.0000
vt 0.7373 0.2177 0.0000
vt 0.7373 0.2296 0.0000
vt 0.5061 0.0976 0.0000
vt 0.9347 0.1747 0.0000
vt 0.9347 0.1985 0.0000
vt 0.7406 0.1985 0.0000
vt 0.7406 0.1747 0.0000
vt 0.9364 0.2725 0.0000
vt 0.9362 0.4583 0.0000
vt 0.9282 0.4666 0.0000
vt 0.9284 0.2725 0.0000
vt 0.5157 0.1322 0.0000
vt 0.7015 0.1320 0.0000
vt 0.7015 0.1400 0.0000
vt 0.5074 0.1402 0.0000
vt 0.9870 0.4799 0.0000
vt 0.9525 0.4442 0.0000
vt 0.9524 0.4560 0.0000
vt 0.9870 0.4918 0.0000
vt 0.9426 0.2618 0.0000
vt 0.9346 0.2619 0.0000
vt 0.9346 0.2380 0.0000
vt 0.9426 0.2380 0.0000
vt 0.7674 0.0733 0.0000
vt 0.7698 0.0854 0.0000
vt 0.7533 0.0889 0.0000
vt 0.7512 0.0770 0.0000
vt 0.7668 0.0082 0.0000
vt 0.7008 0.0299 0.0000
vt 0.5867 0.0297 0.0000
vt 0.5507 0.0079 0.0000
vt 0.8391 0.0800 0.0000
vt 0.7686 0.0534 0.0000
vt 0.9895 0.0533 0.0000
vt 0.9534 0.0799 0.0000
vt 0.7477 0.0898 0.0000
vt 0.7462 0.0778 0.0000
vt 0.7426 0.0904 0.0000
vt 0.7416 0.0783 0.0000
vt 0.7369 0.0907 0.0000
vt 0.7365 0.0785 0.0000
vt 0.7303 0.0908 0.0000
vt 0.7302 0.0784 0.0000
vt 0.7644 0.0625 0.0000
vt 0.7492 0.0665 0.0000
vt 0.7448 0.0674 0.0000
vt 0.7409 0.0678 0.0000
vt 0.7365 0.0677 0.0000
vt 0.7304 0.0671 0.0000
vt 0.7700 0.0870 0.0000
vt 0.7535 0.0904 0.0000
vt 0.5552 0.0946 0.0000
vt 0.5694 0.0902 0.0000
vt 0.6579 0.0902 0.0000
vt 0.6745 0.0946 0.0000
vt 0.7370 0.0922 0.0000
vt 0.7304 0.0924 0.0000
vt 0.7427 0.0919 0.0000
vt 0.7479 0.0914 0.0000
vt 0.7635 0.0290 0.0000
vt 0.7599 0.0300 0.0000
vt 0.7545 0.0300 0.0000
vt 0.5507 0.0297 0.0000
vt 0.9895 0.0799 0.0000
vt 0.6579 0.0795 0.0000
vt 0.6747 0.0784 0.0000
vt 0.6747 0.0915 0.0000
vt 0.5550 0.0916 0.0000
vt 0.5551 0.0782 0.0000
vt 0.5694 0.0795 0.0000
vt 0.5550 0.0662 0.0000
vt 0.6745 0.0663 0.0000
vt 0.7853 0.0800 0.0000
vt 0.5177 0.0909 0.0000
vt 0.5177 0.0783 0.0000
vt 0.5177 0.0669 0.0000
vt 0.5177 0.0924 0.0000
vt 0.7285 0.0892 0.0000
vt 0.7285 0.0803 0.0000
vt 0.6764 0.0893 0.0000
vt 0.6764 0.0804 0.0000
vt 0.8640 0.0907 0.0000
vt 0.8639 0.0926 0.0000
vt 0.8136 0.0926 0.0000
vt 0.8136 0.0907 0.0000
vt 0.7806 0.0882 0.0000
vt 0.7807 0.0863 0.0000
vt 0.7889 0.0863 0.0000
vt 0.7890 0.0882 0.0000
vt 0.8963 0.0116 0.0000
vt 0.8964 0.0098 0.0000
vt 0.9466 0.0098 0.0000
vt 0.9467 0.0116 0.0000
vt 0.8793 0.0149 0.0000
vt 0.8291 0.0149 0.0000
vt 0.8291 0.0068 0.0000
vt 0.8793 0.0068 0.0000
vt 0.7998 0.0912 0.0000
vt 0.7997 0.0894 0.0000
vt 0.8081 0.0894 0.0000
vt 0.8080 0.0912 0.0000
vt 0.7668 0.0232 0.0000
vt 0.7657 0.0267 0.0000
vt 0.7745 0.0774 0.0000
vt 0.7712 0.0741 0.0000
vt 0.7693 0.0695 0.0000
vt 0.7792 0.0793 0.0000
vt 0.5163 0.1511 0.0000
vt 0.5204 0.1435 0.0000
vt 0.6776 0.1436 0.0000
vt 0.7015 0.1511 0.0000
vt 0.9629 0.1341 0.0000
vt 0.9870 0.1341 0.0000
vt 0.7119 0.4794 0.0000
vt 0.9525 0.1341 0.0000
vt 0.8684 0.2374 0.0000
vt 0.7378 0.2648 0.0000
vt 0.6655 0.4937 0.0000
vt 0.6655 0.1836 0.0000
vt 0.6905 0.1843 0.0000
vt 0.6905 0.4929 0.0000
vt 0.5051 0.4914 0.0000
vt 0.6622 0.4922 0.0000
vt 0.6622 0.1836 0.0000
vt 0.5051 0.1844 0.0000
vt 0.9870 0.1223 0.0000
vt 0.9626 0.1223 0.0000
vt 0.9524 0.0865 0.0000
vt 0.9626 0.0865 0.0000
vt 0.9626 0.0984 0.0000
vt 0.9524 0.0984 0.0000
vt 0.7235 0.4912 0.0000
vt 0.9092 0.4911 0.0000
vt 0.9093 0.4792 0.0000
vt 0.7120 0.4914 0.0000
vt 0.9114 0.1235 0.0000
vt 0.8995 0.0978 0.0000
vt 0.8757 0.0978 0.0000
vt 0.7378 0.2374 0.0000
vt 0.9250 0.2840 0.0000
vt 0.9131 0.2840 0.0000
vt 0.9131 0.4698 0.0000
vt 0.9250 0.4698 0.0000
vt 0.9250 0.2725 0.0000
vt 0.9131 0.2726 0.0000
vt 0.9114 0.0976 0.0000
vt 0.9098 0.2725 0.0000
vt 0.9098 0.4666 0.0000
vt 0.8860 0.4666 0.0000
vt 0.8860 0.2725 0.0000
vt 0.9321 0.2042 0.0000
vt 0.9321 0.2122 0.0000
vt 0.7380 0.2124 0.0000
vt 0.7464 0.2044 0.0000
vt 0.5206 0.1769 0.0000
vt 0.5123 0.1689 0.0000
vt 0.7064 0.1690 0.0000
vt 0.7064 0.1770 0.0000
vt 0.9870 0.0984 0.0000
vt 0.9524 0.1222 0.0000
vt 0.9870 0.0865 0.0000
vt 0.8827 0.2567 0.0000
vt 0.9065 0.2567 0.0000
vt 0.9065 0.2647 0.0000
vt 0.8826 0.2647 0.0000
vt 0.5067 0.0433 0.0000
vt 0.5228 0.0471 0.0000
vt 0.5207 0.0590 0.0000
vt 0.5042 0.0555 0.0000
vt 0.9275 0.1514 0.0000
vt 0.7114 0.1518 0.0000
vt 0.7474 0.1299 0.0000
vt 0.8615 0.1297 0.0000
vt 0.8402 0.0210 0.0000
vt 0.9545 0.0210 0.0000
vt 0.9906 0.0476 0.0000
vt 0.7697 0.0476 0.0000
vt 0.5278 0.0479 0.0000
vt 0.5263 0.0599 0.0000
vt 0.5324 0.0483 0.0000
vt 0.5315 0.0604 0.0000
vt 0.5375 0.0486 0.0000
vt 0.5371 0.0607 0.0000
vt 0.5438 0.0484 0.0000
vt 0.5437 0.0609 0.0000
vt 0.5096 0.0325 0.0000
vt 0.5248 0.0366 0.0000
vt 0.5292 0.0375 0.0000
vt 0.5331 0.0379 0.0000
vt 0.5375 0.0378 0.0000
vt 0.5436 0.0372 0.0000
vt 0.5040 0.0570 0.0000
vt 0.5205 0.0605 0.0000
vt 0.7188 0.0647 0.0000
vt 0.5995 0.0646 0.0000
vt 0.6161 0.0602 0.0000
vt 0.7046 0.0602 0.0000
vt 0.5437 0.0625 0.0000
vt 0.5370 0.0623 0.0000
vt 0.5313 0.0620 0.0000
vt 0.5261 0.0614 0.0000
vt 0.9242 0.1307 0.0000
vt 0.9152 0.1296 0.0000
vt 0.9206 0.1296 0.0000
vt 0.7113 0.1300 0.0000
vt 0.9906 0.0209 0.0000
vt 0.6161 0.0495 0.0000
vt 0.5993 0.0616 0.0000
vt 0.5993 0.0484 0.0000
vt 0.7046 0.0495 0.0000
vt 0.7189 0.0483 0.0000
vt 0.7190 0.0617 0.0000
vt 0.7190 0.0362 0.0000
vt 0.5995 0.0363 0.0000
vt 0.7864 0.0210 0.0000
vt 0.7563 0.0484 0.0000
vt 0.7563 0.0609 0.0000
vt 0.7563 0.0369 0.0000
vt 0.7563 0.0625 0.0000
vt 0.5455 0.0503 0.0000
vt 0.5455 0.0592 0.0000
vt 0.5976 0.0593 0.0000
vt 0.5976 0.0504 0.0000
vt 0.9156 0.0926 0.0000
vt 0.8652 0.0926 0.0000
vt 0.8652 0.0907 0.0000
vt 0.9155 0.0907 0.0000
vt 0.7985 0.0912 0.0000
vt 0.7902 0.0912 0.0000
vt 0.7902 0.0894 0.0000
vt 0.7984 0.0894 0.0000
vt 0.8892 0.0842 0.0000
vt 0.9396 0.0842 0.0000
vt 0.9395 0.0860 0.0000
vt 0.8893 0.0860 0.0000
vt 0.8237 0.0076 0.0000
vt 0.8237 0.0158 0.0000
vt 0.7735 0.0158 0.0000
vt 0.7735 0.0076 0.0000
vt 0.7889 0.0912 0.0000
vt 0.7807 0.0912 0.0000
vt 0.7806 0.0894 0.0000
vt 0.7890 0.0894 0.0000
vt 0.9275 0.1365 0.0000
vt 0.9264 0.1329 0.0000
vt 0.7756 0.0237 0.0000
vt 0.7704 0.0315 0.0000
vt 0.7723 0.0269 0.0000
vt 0.7802 0.0217 0.0000
vt 0.5194 0.1555 0.0000
vt 0.7045 0.1556 0.0000
vt 0.6807 0.1631 0.0000
vt 0.5235 0.1632 0.0000
# 296 texture coords

g floor_wall014
usemtl FloorMat
s 1
f 1/1/1 2/2/1 3/3/1 4/4/1 
f 5/5/1 6/6/1 3/7/1 2/8/1 
usemtl Walls
s 2
f 7/9/2 8/10/1 9/11/1 10/12/2 
s 32
f 11/13/3 12/14/4 13/15/5 14/16/6 
s 4
f 15/17/7 12/18/8 11/19/8 16/20/7 
s 16
f 17/21/9 18/22/10 19/23/11 20/24/9 
f 21/25/12 22/26/12 23/27/13 24/28/14 
s 32
f 12/14/4 25/29/9 26/30/4 27/31/15 
f 27/31/15 28/32/16 8/33/17 13/15/5 
s 2
f 9/11/1 28/34/1 29/35/1 30/36/1 
s 1
f 30/37/18 31/38/19 9/39/19 
s 32
f 32/40/20 22/41/3 21/42/3 33/43/21 
f 33/43/21 34/44/22 29/45/23 32/40/20 
s 2
f 9/11/1 8/10/1 28/34/1 
f 34/46/1 30/36/1 29/35/1 
s 8
f 35/47/3 36/48/3 29/49/3 28/50/3 
s 2147483648
f 22/51/24 32/52/25 29/53/26 36/54/27 
f 27/55/28 26/56/29 35/57/30 28/58/31 
s 16
f 37/59/3 23/27/13 18/22/10 17/21/9 
f 25/60/32 19/23/11 18/22/10 26/61/33 
f 26/61/33 18/22/10 23/27/13 22/26/12 
f 38/62/3 24/28/14 23/27/13 37/59/3 
s 2147483648
f 35/63/30 26/64/29 22/65/24 36/66/27 
f 39/67/34 40/68/35 41/69/36 42/70/37 
s 128
f 43/71/38 44/72/39 45/73/40 46/74/41 
f 47/75/42 48/76/42 49/77/26 50/78/26 
s 2147483648
f 41/69/36 51/79/43 52/80/44 42/70/37 
f 51/79/43 53/81/45 54/82/46 52/80/44 
f 53/81/45 55/83/47 56/84/48 54/82/46 
f 55/83/47 57/85/49 58/86/50 56/84/48 
f 43/87/51 39/67/34 42/70/37 59/88/52 
f 59/88/52 42/70/37 52/80/44 60/89/53 
f 60/89/53 52/80/44 54/82/46 61/90/54 
f 61/90/54 54/82/46 56/84/48 62/91/55 
f 56/84/48 58/86/50 63/92/56 62/91/55 
f 48/93/57 64/94/58 41/69/36 40/68/35 
f 50/95/59 65/96/60 66/97/61 47/98/62 
f 55/83/47 67/99/63 68/100/64 57/85/49 
f 53/81/45 69/101/65 67/99/63 55/83/47 
f 51/79/43 70/102/66 69/101/65 53/81/45 
f 41/69/36 64/94/58 70/102/66 51/79/43 
s 128
f 61/103/67 62/104/68 63/105/69 43/71/38 
f 45/73/40 71/106/70 46/74/41 
f 49/77/26 72/107/26 50/78/26 
s 2147483648
f 73/108/71 74/109/72 75/110/73 66/97/61 
f 65/96/60 76/111/74 77/112/75 78/113/76 
f 78/113/76 77/112/75 45/114/77 
f 44/115/78 74/109/72 73/108/71 
f 66/97/61 75/110/73 47/98/62 
f 50/95/59 76/111/74 65/96/60 
s 128
f 47/75/42 68/116/26 48/76/42 
s 2147483648
f 63/92/56 58/86/50 74/109/72 44/115/78 
f 57/85/49 68/100/64 47/98/62 75/110/73 
f 76/111/74 79/117/79 80/118/80 77/112/75 
f 80/118/80 71/119/81 45/114/77 77/112/75 
f 72/120/82 79/117/79 76/111/74 50/95/59 
f 44/115/78 73/108/71 78/113/76 45/114/77 
f 58/86/50 57/85/49 81/121/4 82/122/83 
f 57/85/49 75/110/73 83/123/9 81/121/4 
f 75/110/73 74/109/72 84/124/3 83/123/9 
f 74/109/72 58/86/50 82/122/83 84/124/3 
s 1024
f 83/125/84 85/126/84 86/127/84 81/128/84 
s 512
f 84/129/85 87/130/85 85/131/85 83/132/85 
s 1024
f 82/133/86 88/134/86 87/135/86 84/136/86 
s 256
f 86/137/3 85/138/3 87/139/3 88/140/3 
s 512
f 88/141/87 82/142/87 81/143/87 86/144/87 
s 2147483648
f 78/113/76 73/108/71 66/97/61 65/96/60 
s 128
f 63/105/69 44/72/39 43/71/38 
f 59/145/88 60/146/89 61/103/67 43/71/38 
f 69/147/26 70/148/26 64/149/26 48/76/42 
f 68/116/26 67/150/26 69/147/26 48/76/42 
s 32
f 12/14/4 27/31/15 13/15/5 
s 64
f 12/151/90 15/152/91 89/153/92 25/154/93 
s 16
f 19/23/11 90/155/94 91/156/3 20/24/9 
s 32
f 8/33/17 7/157/95 14/16/6 13/15/5 
s 16
f 25/60/32 92/158/96 90/155/94 19/23/11 
s 1
f 31/38/19 93/159/97 10/160/97 9/39/19 
s 4
f 92/161/98 25/162/98 89/163/99 94/164/99 
f 16/165/7 94/166/99 89/167/99 15/168/7 
s 16
f 95/169/3 91/156/3 90/155/94 96/170/100 
f 97/171/12 98/172/13 99/173/13 100/174/12 
s 32
f 11/13/3 101/175/101 102/176/83 92/177/83 
f 101/175/101 14/16/6 7/157/95 103/178/102 
s 2
f 10/12/2 104/179/2 105/180/2 103/181/2 
s 1
f 93/159/97 104/182/103 10/160/97 
s 32
f 106/183/20 107/184/104 97/185/3 100/186/3 
f 107/184/104 106/183/20 105/187/105 108/188/106 
s 2
f 10/12/2 103/181/2 7/9/2 
f 108/189/1 105/180/2 104/179/2 
s 8
f 109/190/3 103/191/3 105/192/3 110/193/3 
s 2147483648
f 100/194/107 110/195/108 105/196/31 106/197/109 
f 101/198/110 103/199/26 109/200/111 102/201/112 
s 16
f 111/202/3 95/169/3 96/170/100 99/173/13 
f 92/158/96 102/203/113 96/170/100 90/155/94 
f 102/203/113 100/174/12 99/173/13 96/170/100 
f 112/204/3 111/202/3 99/173/13 98/172/13 
s 2147483648
f 109/205/111 110/206/108 100/207/107 102/208/112 
f 113/209/114 114/210/115 115/211/116 116/212/117 
s 128
f 117/213/118 118/214/119 119/215/120 120/216/121 
f 121/217/31 122/218/31 123/219/31 124/220/31 
s 2147483648
f 115/211/116 114/210/115 125/221/122 126/222/123 
f 126/222/123 125/221/122 127/223/124 128/224/125 
f 128/224/125 127/223/124 129/225/126 130/226/127 
f 130/226/127 129/225/126 131/227/128 132/228/129 
f 117/229/130 133/230/131 114/210/115 113/209/114 
f 133/230/131 134/231/132 125/221/122 114/210/115 
f 134/231/132 135/232/133 127/223/124 125/221/122 
f 135/232/133 136/233/134 129/225/126 127/223/124 
f 129/225/126 136/233/134 137/234/135 131/227/128 
f 124/235/136 116/212/117 115/211/116 138/236/137 
f 122/237/138 121/238/139 139/239/140 140/240/141 
f 130/226/127 132/228/129 141/241/142 142/242/143 
f 128/224/125 130/226/127 142/242/143 143/243/144 
f 126/222/123 128/224/125 143/243/144 144/244/145 
f 115/211/116 126/222/123 144/244/145 138/236/137 
s 128
f 135/245/146 117/213/118 137/246/147 136/247/148 
f 119/215/120 118/214/119 145/248/149 
f 123/219/31 122/218/31 146/249/31 
s 2147483648
f 147/250/150 139/239/140 148/251/151 149/252/152 
f 140/240/141 150/253/153 151/254/154 152/255/155 
f 150/253/153 119/256/156 151/254/154 
f 120/257/157 147/250/150 149/252/152 
f 139/239/140 121/238/139 148/251/151 
f 122/237/138 140/240/141 152/255/155 
s 128
f 121/217/31 124/220/31 141/258/31 
s 2147483648
f 137/234/135 120/257/157 149/252/152 131/227/128 
f 132/228/129 148/251/151 121/238/139 141/241/142 
f 152/255/155 151/254/154 153/259/158 154/260/159 
f 153/259/158 151/254/154 119/256/156 145/261/160 
f 146/262/161 122/237/138 152/255/155 154/260/159 
f 120/257/157 119/256/156 150/253/153 147/250/150 
f 131/227/128 155/263/3 156/264/3 132/228/129 
f 132/228/129 156/264/3 157/265/3 148/251/151 
f 148/251/151 157/265/3 158/266/3 149/252/152 
f 149/252/152 158/266/3 155/263/3 131/227/128 
s 1024
f 157/267/86 156/268/86 159/269/86 160/270/86 
s 512
f 158/271/85 157/272/85 160/273/85 161/274/85 
s 1024
f 155/275/84 158/276/84 161/277/84 162/278/84 
s 256
f 159/279/3 162/280/3 161/281/3 160/282/3 
s 512
f 162/283/87 159/284/87 156/285/87 155/286/87 
s 2147483648
f 150/253/153 140/240/141 139/239/140 147/250/150 
s 128
f 137/246/147 117/213/118 120/216/121 
f 133/287/162 117/213/118 135/245/146 134/288/163 
f 143/289/31 124/220/31 138/290/31 144/291/31 
f 141/258/31 124/220/31 143/289/31 142/292/31 
s 32
f 11/13/3 14/16/6 101/175/101 
s 64
f 11/293/164 92/294/165 94/295/166 16/296/167 
# 123 polygons - 24 triangles

